<svg width="88" height="80" viewBox="0 0 88 80" fill="none" xmlns="http://www.w3.org/2000/svg">
<path d="M80.6245 40.7381C82.2531 37.4966 85.6409 36.5703 88 34.3286C87.9376 39.6553 85.2178 42.9248 80.5725 44.7506C79.0028 45.3673 79.5149 46.9233 78.8884 48.2736C81.6324 46.0694 84.6734 45.4503 87.7943 44.7214C85.9091 49.5387 82.7952 52.5863 77.6331 53.0325C77.1581 53.0734 76.9408 53.3573 76.7269 53.689C76.2137 54.4822 75.7098 55.2811 75.2116 56.0836C75.1711 56.1479 75.2058 56.26 75.2058 56.4458C78.3694 55.2648 81.674 55.1386 84.9959 54.6842C82.6357 59.727 78.3879 62.166 73.1958 60.2363C72.5555 59.998 72.1324 60.0331 71.625 60.5085C71.1072 60.9944 70.468 61.3472 69.897 61.8962C73.2316 61.6147 76.0588 63.1437 79.0398 64.181C76.3131 66.5196 71.0517 67.1025 67.6153 65.244C66.4791 64.6296 65.7729 64.6962 64.8898 65.4776C64.4991 65.8234 63.9605 65.9998 63.4797 66.3584C67.4327 65.9215 70.5489 68.2332 74.3389 69.4259C69.3214 71.2878 64.6979 72.4022 60.39 68.6316C60.0005 68.2905 59.7428 68.3617 59.3509 68.5568C58.9591 68.7519 58.5118 68.8313 58.0876 68.9598C57.6669 69.0871 57.2438 69.2121 56.748 69.4924C60.79 69.7529 63.5398 72.6686 67.2038 74.353C61.9921 75.4802 57.29 75.715 53.6884 71.2423C53.3312 70.7984 53.0272 70.8019 52.5464 70.9246C51.7581 71.1255 50.9455 71.2248 50.1214 71.4724C54.1577 72.1779 56.4243 75.7045 59.9219 77.4181C57.2935 78.515 52.9648 77.7078 50.7583 75.8073C49.8498 75.0247 48.9933 74.1801 48.3206 73.1884C47.6317 72.1721 46.9405 71.8427 45.9731 72.8169C45.7766 73.0155 45.4818 73.1159 45.1489 73.3098C46.8099 74.9697 48.3911 76.618 49.7724 78.4426C50.059 78.821 50.6762 79.1726 49.8718 79.7356C49.1852 80.2157 48.8719 80.0102 48.4894 79.3759C47.4537 77.6553 46.0933 76.2044 44.6773 74.7969C44.1144 74.2373 43.7931 74.2642 43.2418 74.8342C41.9229 76.2009 40.707 77.6459 39.6563 79.2287C39.2633 79.8209 38.9374 80.2578 38.1676 79.696C37.3111 79.0698 38.1548 78.7906 38.3802 78.425C39.3835 76.7967 40.7497 75.479 42.0616 74.1147C42.3691 73.7958 43.1112 73.4033 42.3356 73.0166C41.7334 72.7164 41.0734 71.6056 40.2123 72.6849C39.8713 73.1124 39.5742 73.5774 39.2321 74.0037C36.3621 77.5875 32.5189 78.3012 27.8018 77.7335C31.5503 75.9346 33.6944 72.2679 37.8185 71.532C36.9574 71.2972 36.0916 71.0741 35.2351 70.8241C34.7705 70.6874 34.6422 71.0577 34.426 71.31C31.5063 74.7174 27.788 75.6134 23.5413 74.8413C22.827 74.7116 22.1115 74.5784 20.9487 74.3647C24.5885 72.5517 27.3106 69.7237 31.637 69.7272C30.4522 68.9948 29.2501 69.0369 28.3324 68.3979C28.0862 68.2262 27.8978 68.4785 27.7082 68.6432C24.5943 71.3509 21.062 71.7002 17.2627 70.5204C16.323 70.2284 15.3891 69.9211 14.0344 69.4866C17.6222 68.0895 20.6031 66.0804 24.2637 66.3222C22.7866 64.8527 21.8607 64.7125 19.9593 65.5361C17.3737 66.6563 14.7557 66.5803 12.1527 65.5653C11.2442 65.2113 10.3472 64.8235 9.19137 64.3469C12.1723 63.1437 14.8031 61.8284 18.0314 61.8705C16.8443 60.5645 15.8676 59.9197 14.1766 60.5236C11.2731 61.5598 8.61922 60.7316 6.32832 58.7096C5.09039 57.6174 4.1842 56.232 2.84803 54.641C6.47395 55.0674 9.76352 55.301 13.1837 56.3663C12.0602 54.5441 11.2199 53.0851 8.93824 52.7206C4.60031 52.0291 2.26086 48.7689 0.45194 44.7973C3.61205 45.3849 6.58261 46.0822 9.20062 48.0166C8.99026 46.2002 8.38921 44.9246 6.52828 44.1969C2.16839 42.4914 0.254289 38.9579 0 34.2387C2.44233 36.3378 5.49494 37.4732 7.5489 40.3339C7.62288 38.4463 7.48533 37.2104 5.70069 36.339C2.04471 34.5529 1.18938 31.0953 1.09806 26.9333C3.23524 29.1235 5.62093 30.5638 7.32813 33.1781C7.32004 31.5088 7.59976 30.3372 5.95382 29.3128C3.51149 27.793 2.9116 25.1262 3.18785 22.3087C3.25952 21.5728 3.43521 20.8462 3.6421 19.6723C5.16552 22.276 7.19521 24.1275 7.96039 26.8621C8.76949 24.8202 8.78336 24.5457 7.59629 22.8718C5.49494 19.9071 5.56892 16.8513 7.11661 13.5514C8.28749 15.9542 9.76468 18.0848 9.86061 20.9864C10.9876 19.3721 10.8662 18.1351 10.0825 16.6994C8.68626 14.1424 9.19484 11.603 10.7599 8.94782C11.9099 11.1392 12.7618 13.1939 12.6832 15.5535C13.4777 14.6689 13.678 13.6234 13.2843 12.4171C12.2683 9.30643 12.9179 6.5485 15.1822 4.64564C15.5671 6.88375 16.1022 9.0436 15.9023 11.4803C16.8038 10.8425 16.7726 10.0529 16.8027 9.29241C16.9449 5.74718 17.9343 4.18774 21.3048 2.36548C21.1175 3.48103 20.9233 4.48911 20.7858 5.50421C20.6505 6.50645 20.261 7.41992 19.8345 8.47473C21.3071 8.16752 22.6467 7.61733 24.0973 7.71546C23.0212 10.2281 21.4446 11.3717 18.948 10.8542C17.4176 10.5365 16.8559 11.2794 16.004 12.3949C17.0859 12.1543 17.9909 12.0749 18.9017 12.1134C19.8287 12.1531 20.7707 12.0363 21.6897 12.3412C20.5026 14.612 18.2729 15.786 15.7798 15.1307C14.2979 14.7417 13.7743 15.4414 13.0855 16.6422C15.3382 16.189 17.361 16.4576 19.5328 16.926C17.6996 18.8943 15.5752 20.0391 13.1155 19.6559C11.5008 19.4048 11.0673 20.0683 10.6801 21.2586C12.815 21.0775 14.936 20.9806 17.2546 21.3801C15.3925 23.7303 13.0577 24.5667 10.4859 24.7606C9.22489 24.8552 8.81688 25.319 9.14514 26.6132C11.1355 25.75 13.2242 25.8633 15.485 25.8797C14.1731 28.2217 12.2301 29.5849 9.93228 29.9482C8.18 30.225 8.0228 31.0217 8.14301 32.3732C8.16497 32.6197 8.14648 32.8697 8.14648 33.2762C9.84559 30.9061 12.3584 31.2074 14.7892 30.6094C13.7258 33.5635 11.7597 35.3799 9.3058 36.5469C8.21699 37.0644 8.07713 37.611 8.22739 38.5783C8.35569 39.3994 8.44353 40.2276 8.5938 41.3957C9.43873 38.1636 11.8891 37.1181 14.313 35.8495C14.1546 39.5466 13.023 42.5604 9.68146 44.3219C9.30118 44.5228 9.17866 44.6641 9.28037 45.0998C9.60979 46.4981 9.74387 47.9489 10.568 49.6812C10.8084 46.2446 12.4694 44.0906 14.9175 42.3104C16.0629 46.1465 14.8944 49.2852 12.4486 52.0209C12.0198 52.501 11.9261 52.7545 12.1781 53.2393C12.7491 54.3362 13.2924 55.4529 14.4424 56.663C13.4172 52.9087 15.3937 50.4475 17.0639 47.6358C18.8913 51.4415 18.7283 54.9658 16.7877 58.3977C16.538 58.8392 16.3427 59.0296 16.7414 59.4268C17.5471 60.2281 18.3215 61.0622 19.6322 61.7373C18.4741 58.2482 19.5652 55.1562 20.2021 51.8305C22.5011 54.7882 23.7112 57.8732 23.0813 61.5212C23.064 61.6193 23.0397 61.721 23.0455 61.8191C23.094 62.6216 21.8931 63.3341 22.4167 63.8937C23.2547 64.7908 24.399 65.4531 25.8785 65.9846C24.1701 62.5608 25.1006 59.1628 24.8139 55.7204C28.4295 58.3369 30.1031 62.9522 28.9126 66.8911C28.7519 67.4225 28.8409 67.6036 29.2755 67.7823C30.1783 68.155 31.0764 68.5393 32.3154 69.0626C31.2035 67.2614 30.8244 65.605 30.8105 63.8633C30.7966 62.1263 30.8071 60.3893 30.8071 58.4841C34.1637 61.0014 35.7807 64.2021 35.3091 68.2437C35.1438 69.6618 35.397 70.2576 36.7736 70.3989C37.3053 70.4538 37.8185 70.6839 38.7709 70.9573C36.1957 67.9681 36.8857 64.6249 36.7343 61.3834C39.78 62.7279 41.7738 66.2556 41.5357 69.7915C41.4213 71.4864 43.2394 72.7083 44.7906 72.06C46.0447 71.5355 46.7475 71.0215 46.6215 69.3254C46.388 66.1843 48.6858 62.8622 51.49 61.5645C51.49 67.4342 51.4241 67.8057 49.8556 70.6057C49.8995 70.6279 49.9515 70.6769 49.9885 70.6676C50.9421 70.4293 52.0991 70.4433 52.7915 69.8756C53.6029 69.2109 52.7498 68.0627 52.7776 67.1083C52.87 63.8493 54.4039 60.8063 57.2808 58.8614C56.867 62.263 58.1315 65.6587 56.0949 68.8558C57.2739 68.7741 58.1419 68.0522 59.1487 67.7555C59.6723 67.6013 59.4226 67.259 59.3255 66.9202C58.1015 62.6274 59.4469 58.6535 63.208 55.9236C62.9214 59.3591 64.0033 62.6847 62.3608 66.0336C63.6796 65.5979 64.602 64.7826 65.6191 64.1378C66.0202 63.8843 65.907 63.6601 65.7451 63.2816C64.2171 59.6861 65.032 55.4342 67.9077 52.209C68.5932 55.3653 69.8623 58.3428 68.8821 61.617C69.445 61.5645 69.6415 61.0949 69.9733 60.8262C70.5893 60.3262 71.2852 59.8473 71.7059 59.2002C72.2665 58.3358 71.158 57.9117 70.8933 57.2436C69.6323 54.0569 69.7929 50.9217 70.9292 47.5155C72.9854 50.1928 74.8001 52.737 74.0766 56.6222C75.1816 55.2601 75.5792 53.9471 76.2126 52.7755C76.4992 52.2452 75.9791 51.9847 75.7063 51.6553C73.2755 48.7187 72.4191 45.3545 73.3021 41.9716C75.3295 44.0485 77.788 45.7376 77.9128 49.0668C78.0423 48.714 78.1694 48.3612 78.3 48.0085C79.0063 46.1056 79.442 44.5345 77.106 43.1024C74.6579 41.6025 74.2268 38.7383 74.0164 35.8787C76.3501 37.0095 78.693 37.9872 79.6328 40.9168C79.7426 40.5769 79.7876 40.4636 79.8154 40.3468C80.3055 38.2605 79.998 36.7864 77.6967 35.7818C75.6277 34.8788 74.0615 33.0881 73.1137 30.6935C75.6578 30.857 78.0111 31.0918 79.9159 32.8977C80.1032 31.3079 79.9113 30.2321 77.9256 29.933C75.8913 29.6258 74.1864 28.4005 72.9218 26.6822C72.7577 26.4579 72.4283 26.257 72.604 25.9229C72.7739 25.6005 73.1299 25.7021 73.4131 25.7208C75.3122 25.8458 77.269 25.6752 78.9809 26.9789C79.1924 25.3038 78.7127 24.7407 77.0933 24.6905C74.614 24.6134 72.4156 23.6065 70.5454 21.2306C72.9981 21.1208 75.1168 20.8591 77.2413 21.5868C77.0933 19.6489 76.9743 19.5917 75.2994 19.6851C72.6155 19.8347 70.2634 19.1081 68.3874 16.7403C70.6818 16.5172 72.7704 16.2404 75.0833 16.7578C74.3817 15.5126 73.7853 14.8795 72.3601 15.1353C69.6184 15.6294 68.2568 14.9438 66.1797 12.4008C68.1516 11.9137 70.0056 12.062 72.07 12.4662C71.3175 11.3588 70.7766 10.6241 69.341 10.9675C67.057 11.513 65.5013 10.4827 63.9825 7.73064C64.7523 7.51805 65.4492 7.82877 66.1335 7.91054C66.8582 7.99698 67.5656 8.23176 68.4672 8.4467C67.3772 6.56837 67.1299 4.59541 67.0015 2.55705C69.6716 3.32567 71.4539 6.06491 71.5175 9.39872C71.5321 10.165 71.8319 10.8437 72.4167 11.4347C72.211 9.08799 72.5867 6.94333 73.0513 4.81035C75.3179 6.406 76.2669 9.86012 74.9851 12.6344C74.3621 13.9836 74.6233 14.9519 75.5965 16.175C75.7387 13.5455 76.4657 11.2934 77.61 9.02725C79.3056 11.7081 79.5599 14.3504 78.2781 17.1095C77.2898 19.2378 77.2875 19.3791 78.6029 21.6301C78.5312 18.5965 80.1367 16.2637 81.14 13.6168C83.0229 16.377 82.9246 19.6524 80.9666 22.5599C80.0473 23.9242 79.753 25.4907 80.0835 27.2592C80.9423 24.5387 82.8842 22.519 84.3544 20.1617C86.0166 23.4488 85.3438 27.1155 82.2935 29.3011C80.6661 30.4669 80.2812 31.6396 80.8822 33.5051C81.4925 32.4188 82.0566 31.371 82.9651 30.5895C84.2019 29.5265 85.434 28.4554 86.7182 27.3457C87.4822 30.5486 86.094 34.1464 83.0102 36.0096C81.1573 37.1286 80.2719 38.4124 80.621 40.7416L80.6245 40.7381Z" fill="white"/>
<path d="M42.3849 45.1374C41.5215 44.5323 40.739 44.4155 39.8374 44.1655C40.5749 43.2345 41.4614 42.5208 41.8648 41.4531C42.0578 40.9415 42.237 40.4743 41.6163 40.1869C40.1865 39.5234 40.7552 38.9662 41.6799 38.3997C41.8868 38.2724 42.0752 38.1147 42.3537 37.9114C38.6469 34.6979 36.4369 30.592 34.8569 26.0702C33.7969 23.0378 33.6813 19.9037 33.7045 16.7428C33.7102 15.9777 33.8536 15.1764 32.93 14.7138C32.4954 14.4965 32.4793 13.9253 32.618 13.4896C32.7752 12.9978 33.2826 13.1205 33.6467 13.1193C40.5841 13.0843 47.5204 13.0714 54.4579 13.041C55.6727 13.0352 55.601 13.8669 55.0763 14.3669C54.0348 15.3598 54.2799 16.5361 54.2706 17.6925C54.2071 25.3612 51.7 31.9902 46.0941 37.283C45.4734 37.8694 45.5716 38.0738 46.2467 38.409C47.0847 38.8249 47.6557 39.3459 46.4582 40.0701C45.8051 40.4649 45.8548 41.0303 46.1322 41.6342C46.8246 43.1422 47.8071 44.4096 49.4692 44.7904C50.365 44.996 50.3627 45.4434 50.3638 46.156C50.365 47.0963 49.7732 47.0426 49.171 47.0414C45.6537 47.0379 42.1353 46.9924 38.6192 47.0473C37.5916 47.0636 37.5581 46.5508 37.5061 45.7717C37.4367 44.732 38.0979 44.9446 38.6666 44.9657C39.8305 45.0089 40.9933 45.072 42.3849 45.1374ZM35.8578 17.7579C35.7688 20.767 35.7734 23.5751 37.2333 26.1485C36.8738 24.0342 37.0229 21.9059 36.9559 19.7846C36.9316 19.037 37.1651 18.6223 38.225 18.5277C37.2587 18.2135 36.6565 18.0184 35.8578 17.7579Z" fill="white"/>
<path d="M37.7469 49.7006C37.1054 49.7006 36.4615 49.6796 35.8212 49.7064C35.1889 49.7333 34.7497 49.5814 34.7509 48.828C34.752 48.1306 35.0699 47.8935 35.7634 47.897C41.063 47.925 46.3638 47.9204 51.6634 47.9262C51.7628 47.9262 51.861 47.9367 51.9604 47.9449C53.2689 48.0454 52.5407 49.8115 53.2712 49.8921C54.501 50.0276 54.9761 50.4341 54.8512 51.6431C54.7645 52.4807 54.8847 53.0332 56.0013 53.0204C57.3363 53.004 56.6243 54.2399 56.8162 54.8812C57.0358 55.6136 56.2891 55.4302 55.9204 55.4314C47.9947 55.4465 40.069 55.4384 32.1433 55.4419C31.5064 55.4419 30.9111 55.4419 31.0706 54.5179C31.177 53.9058 30.762 52.9246 31.9329 53.0204C33.0252 53.1103 33.0194 52.3942 32.994 51.698C32.9477 50.4084 33.3662 49.773 34.7798 49.9611C35.7519 50.0907 36.7551 49.9856 37.7445 49.9856C37.7445 49.8898 37.7457 49.7952 37.7469 49.6994V49.7006Z" fill="white"/>
<path d="M29.2783 13.8574C31.3566 13.8738 32.9516 15.2814 33.0984 17.2707C33.147 17.9318 33.1111 18.5883 32.2327 18.7495C31.7403 18.8406 31.3739 18.9364 31.3866 18.197C31.4051 17.0219 30.7023 16.3455 29.6459 16.085C28.5108 15.8047 27.6162 16.2848 26.9412 17.2076C25.5911 19.0532 25.8339 20.99 26.7863 22.8636C28.0069 25.2653 30.0054 26.8702 32.3876 28.0197C33.4984 28.5558 34.6947 28.9507 35.6032 29.8396C37.1012 31.3056 36.7348 33.657 34.9247 34.2457C34.2393 34.4688 33.5966 34.3555 33.2637 33.6722C32.9366 33.0005 33.2314 32.7015 33.9549 32.3908C34.89 31.9889 34.334 31.2775 33.7977 30.9388C33.1805 30.5498 32.4292 30.3874 31.7542 30.0837C27.4891 28.161 24.3185 25.2641 23.8423 20.2856C23.4898 16.592 25.9414 13.8329 29.2795 13.8586L29.2783 13.8574Z" fill="white"/>
<path d="M58.9795 13.8902C62.0992 13.8704 64.7715 17.161 64.2248 20.5532C63.4851 25.1485 60.7006 28.1354 56.5557 29.925C55.7408 30.2766 54.8762 30.5055 54.051 30.8372C53.6799 30.9856 53.3632 31.2543 53.3979 31.7379C53.4303 32.1923 53.6337 32.5053 54.1215 32.517C54.6705 32.5299 54.9618 32.7576 54.8843 33.3464C54.8173 33.8627 54.4775 34.1267 54.0244 34.2692C52.7841 34.657 51.3728 33.5391 51.4237 32.1455C51.478 30.6901 52.0953 29.5663 53.4938 28.9613C55.2669 28.1938 57.0643 27.4789 58.575 26.2045C60.303 24.7455 61.5386 22.991 61.9316 20.712C62.2737 18.7251 61.3802 16.9005 59.762 16.2323C58.2479 15.6062 56.9741 16.2849 56.684 17.9004C56.5973 18.3816 56.7221 19.0019 55.9454 18.8956C55.2739 18.8033 54.9329 18.4027 54.9155 17.6679C54.8624 15.4158 56.4632 13.9077 58.9795 13.8914V13.8902Z" fill="white"/>
<path d="M41.905 1.90871C43.0955 1.71831 43.6064 1.05364 43.8861 0C44.5207 0.755771 44.5588 1.97412 46.1134 1.53724C45.2639 2.4659 44.8119 3.22518 45.3968 4.37811C44.4201 4.00081 43.6757 3.32447 42.9256 4.47857C42.6343 3.46347 43.2238 2.3853 41.9038 1.90754L41.905 1.90871Z" fill="white"/>
<path d="M54.8062 44.3979C56.8809 46.1361 58.6609 48.1476 60.1358 50.4348C57.8403 48.9011 56.1354 46.8265 54.8062 44.3979Z" fill="white"/>
<path d="M37.2338 1.18896C37.6545 1.63635 37.8024 2.20173 38.4936 2.23093C39.2057 2.2613 39.0334 2.64794 38.904 3.24952C38.6948 4.21906 38.3214 4.50758 37.3736 4.45852C36.383 4.40712 36.6836 3.27639 35.945 2.95282C35.5728 2.79045 36.2016 2.52646 36.4143 2.31152C36.7182 2.00548 36.9332 1.61065 37.2326 1.18896H37.2338Z" fill="white"/>
<path d="M32.8037 44.5239C31.5935 46.7854 29.7302 48.4582 28.0173 50.2594C27.867 50.4171 27.6532 50.4241 27.4856 50.2781C27.2105 50.0374 27.422 49.8108 27.5723 49.645C29.2136 47.8332 30.7127 45.8766 32.8048 44.5239H32.8037Z" fill="white"/>
<path d="M50.6905 1.21014C52.1307 2.14814 52.3723 3.65151 51.0812 4.36056C50.064 4.91892 48.8434 3.81971 49.1474 2.36775C49.2122 2.05936 50.42 1.86547 50.6893 1.20898L50.6905 1.21014Z" fill="white"/>
<path d="M31.7657 2.73828C32.6846 3.67161 34.074 4.30589 33.1701 6.02185C32.8453 4.76613 31.6189 7.15025 30.8896 5.14343C30.2943 3.50456 32.2859 3.78258 31.7657 2.73828Z" fill="white"/>
<path d="M29.6877 42.209C28.2914 44.12 26.2987 45.2566 24.5557 46.6992C24.3649 46.8569 24.1326 46.9877 23.9141 46.7156C23.7604 46.524 23.8159 46.3313 23.9673 46.1899C25.6849 44.5814 27.5979 43.2603 29.6877 42.209Z" fill="white"/>
<path d="M57.8447 42.2722C59.9149 43.2791 61.5989 44.7871 63.3639 46.1783C63.5466 46.322 63.7754 46.4832 63.5535 46.7788C63.4102 46.9692 63.1802 47.017 63.0334 46.9084C61.1655 45.523 59.2029 44.2451 57.8447 42.271V42.2722Z" fill="white"/>
<path d="M56.2409 2.86084C56.2525 3.73926 57.4187 3.91566 57.0107 5.22161C56.4339 7.0649 55.2191 4.9985 54.8308 6.05448C54.0055 4.38758 55.2261 3.74277 56.2409 2.86084Z" fill="white"/>
<path d="M61.7231 36.423C62.6247 35.9639 63.4881 36.2045 64.3677 36.4008C65.5617 36.6671 66.7696 36.8715 67.9682 37.1227C68.1936 37.1694 68.4618 37.2675 68.4352 37.5899C68.4156 37.8305 68.1959 37.9462 68.0133 37.9123C65.8981 37.5151 63.7447 37.2733 61.7231 36.423Z" fill="white"/>
<path d="M24.8848 34.0274C22.995 34.0274 21.104 34.0309 19.2142 34.0227C18.9587 34.0227 18.7368 33.9152 18.6998 33.6104C18.664 33.3195 18.7888 33.0894 19.079 33.1069C21.0324 33.2284 23.0227 32.9936 24.9426 33.4667C24.923 33.6536 24.9045 33.8405 24.8848 34.0274Z" fill="white"/>
<path d="M25.9042 36.2943C23.9196 37.2755 21.7604 37.5127 19.6267 37.8491C19.4094 37.8829 19.2626 37.6926 19.2476 37.4788C19.2326 37.2533 19.3886 37.119 19.6013 37.0898C21.6968 36.8094 23.7231 35.9824 25.9042 36.2943Z" fill="white"/>
<path d="M62.9712 33.5622C64.8864 33.0961 66.8514 33.1277 68.8164 33.1721C69.0452 33.1767 69.1492 33.3519 69.1053 33.5832C69.0337 33.9675 68.7262 33.9979 68.4303 33.9991C66.6191 34.0061 64.809 34.0026 62.9978 34.0026C62.9885 33.8554 62.9804 33.7082 62.9712 33.5622Z" fill="white"/>
</svg>
