<svg width="24" height="24" viewBox="0 0 24 24" fill="none" xmlns="http://www.w3.org/2000/svg">
<path d="M24 11.9995C24 8.81705 22.7363 5.76493 20.4869 3.51458C18.2375 1.26424 15.1867 5.12276e-06 12.0055 5.12276e-06C8.98525 -0.00278525 6.07508 1.13446 3.85634 3.18457C1.6376 5.23468 0.273647 8.04674 0.0369209 11.059C-0.199805 14.0713 0.708128 17.062 2.57936 19.4338C4.45059 21.8056 7.14736 23.3839 10.131 23.8533V15.4674H7.08783V11.9995H10.1327V9.3562C10.1327 6.34946 11.9233 4.68667 14.6632 4.68667C15.9757 4.68667 17.3482 4.92152 17.3482 4.92152V7.87512H15.8352C14.3445 7.87512 13.8818 8.80079 13.8818 9.74876V11.9995H17.2077L16.6765 15.4674H13.8801V23.8533C16.7014 23.4064 19.2707 21.967 21.1258 19.794C22.9809 17.621 24.0001 14.8572 24 11.9995Z" fill="#1877F2"/>
<path d="M16.6768 15.4675L17.208 11.9996H13.8821V9.74886C13.8821 8.80089 14.3448 7.87522 15.8355 7.87522H17.3485V4.91991C17.3485 4.91991 15.976 4.68506 14.6635 4.68506C11.9219 4.68506 10.133 6.34785 10.133 9.35459V11.9996H7.08984V15.4675H10.1347V23.8534C11.3768 24.049 12.6418 24.049 13.8838 23.8534V15.4675H16.6768Z" fill="white"/>
</svg>
