<svg width="24" height="24" viewBox="0 0 24 24" fill="none" xmlns="http://www.w3.org/2000/svg">
<path d="M24.0012 12.2668C24.0012 11.2801 23.9195 10.5601 23.7427 9.81348H12.2461V14.2668H18.9943C18.8583 15.3735 18.1236 17.0401 16.491 18.1601L16.4681 18.3092L20.1031 21.0688L20.3549 21.0935C22.6678 19.0001 24.0012 15.9201 24.0012 12.2668Z" fill="#4285F4"/>
<path d="M12.2435 24.0002C15.5496 24.0002 18.325 22.9335 20.3523 21.0935L16.4884 18.1601C15.4544 18.8668 14.0666 19.3601 12.2435 19.3601C9.00542 19.3601 6.25714 17.2669 5.27746 14.3735L5.13386 14.3855L1.35412 17.2522L1.30469 17.3868C3.31827 21.3068 7.45434 24.0002 12.2435 24.0002Z" fill="#34A853"/>
<path d="M5.27886 14.3734C5.02036 13.6267 4.87076 12.8266 4.87076 12C4.87076 11.1733 5.02036 10.3733 5.26526 9.62667L5.25841 9.46765L1.43131 6.55493L1.30609 6.6133C0.476196 8.23999 0 10.0667 0 12C0 13.9333 0.476196 15.76 1.30609 17.3866L5.27886 14.3734Z" fill="#FBBC05"/>
<path d="M12.2435 4.63997C14.5428 4.63997 16.0938 5.6133 16.9782 6.42668L20.4339 3.12C18.3115 1.18667 15.5496 0 12.2435 0C7.45434 0 3.31827 2.69331 1.30469 6.61328L5.26385 9.62665C6.25714 6.73333 9.00542 4.63997 12.2435 4.63997Z" fill="#EB4335"/>
</svg>
