<svg width="121" height="138" viewBox="0 0 121 138" fill="none" xmlns="http://www.w3.org/2000/svg">
<path d="M64.8765 2.18068L119.942 33.9775V41.8831C119.942 45.0207 118.273 47.9212 115.561 49.4987L107.523 54.1748L119.942 60.1783V68.6113C119.942 71.739 118.284 74.6319 115.586 76.2129L107.523 80.9376L119.942 87.9053V96.7207C119.942 99.8321 118.301 102.713 115.624 104.299L60.4708 137L5.31714 104.299C2.64093 102.713 1 99.8321 1 96.7207V87.9053L13.4186 80.9376L5.35604 76.2129C2.65783 74.6319 1 71.739 1 68.6113V60.1783L13.4186 54.1748L5.38031 49.4987C2.6684 47.9212 1 45.0207 1 41.8831V33.9775L56.0651 2.18068C58.791 0.606441 62.1505 0.606438 64.8765 2.18068Z" fill="white"/>
<path d="M64.8765 2.18068L119.942 33.9775V41.8831C119.942 45.0207 118.273 47.9212 115.561 49.4987L107.523 54.1748L119.942 60.1783V68.6113C119.942 71.739 118.284 74.6319 115.586 76.2129L107.523 80.9376L119.942 87.9053V96.7207C119.942 99.8321 118.301 102.713 115.624 104.299L60.4708 137L5.31714 104.299C2.64093 102.713 1 99.8321 1 96.7207V87.9053L13.4186 80.9376L5.35604 76.2129C2.65783 74.6319 1 71.739 1 68.6113V60.1783L13.4186 54.1748L5.38031 49.4987C2.6684 47.9212 1 45.0207 1 41.8831V33.9775L56.0651 2.18068C58.791 0.606441 62.1505 0.606438 64.8765 2.18068Z" fill="#0080FF"/>
<path d="M119.942 33.9775L64.8765 2.18068C62.1505 0.606438 58.7911 0.606441 56.0651 2.18068L1 33.9775M119.942 33.9775L60.4708 67.3989M119.942 33.9775V41.8831C119.942 45.0207 118.273 47.9212 115.561 49.4987L107.523 54.1748M1 33.9775L60.4708 67.3989M1 33.9775V41.8831C1 45.0207 2.6684 47.9212 5.38031 49.4987L13.4186 54.1748M60.4708 67.3989V81.5459M107.523 54.1748L60.4708 81.5459M107.523 54.1748L119.942 60.1783M60.4708 137L115.624 104.299C118.301 102.713 119.942 99.8321 119.942 96.7207V87.9053M60.4708 137L5.31714 104.299C2.64093 102.713 1 99.8321 1 96.7207V87.9053M60.4708 137V123.42M119.942 87.9053L60.4708 123.42M119.942 87.9053L107.523 80.9376M1 87.9053L60.4708 123.42M1 87.9053L13.4186 80.9376M13.4186 54.1748L60.4708 81.5459M13.4186 54.1748L1 60.1783M60.4708 95.5365L119.942 60.1783M60.4708 95.5365L1 60.1783M60.4708 95.5365V109.429M119.942 60.1783V68.6113C119.942 71.739 118.284 74.6319 115.586 76.2129L107.523 80.9376M1 60.1783V68.6113C1 71.739 2.65783 74.6319 5.35604 76.2129L13.4186 80.9376M60.4708 109.429L13.4186 80.9376M60.4708 109.429L107.523 80.9376" stroke="white" stroke-width="0.906667" stroke-linecap="round" stroke-linejoin="round"/>
<path d="M1.31169 33.74L0.96617 33.9389L1.31388 34.1341L60.3889 67.2841L60.5 67.3465L60.611 67.284L119.474 34.134L119.822 33.9379L119.475 33.7397C103.107 24.3864 69.4138 5.05422 65.5111 2.50903C61.5079 -0.101796 57.46 1.2691 55.9178 2.29362L1.31169 33.74Z" fill="#04193F" stroke="white" stroke-width="0.453333"/>
</svg>
