<svg width="121" height="138" viewBox="0 0 121 138" fill="none" xmlns="http://www.w3.org/2000/svg">
<path d="M64.8139 2.13814L120.014 34.0143V97.7687C120.014 100.803 118.396 103.606 115.768 105.123L95.5268 116.812L84.0437 109.946V118.54C84.0437 121.574 82.4255 124.378 79.7983 125.895L60.5672 137L41.5914 126.042C38.9642 124.525 37.3458 121.722 37.3458 118.688V109.946L25.6075 116.812L5.3657 105.123C2.7385 103.606 1.12012 100.803 1.12012 97.7687V34.0143L56.3206 2.13814C58.9481 0.620623 62.1863 0.62062 64.8139 2.13814Z" fill="#0080FF"/>
<path d="M120.014 34.0143L64.8143 2.13814C62.1863 0.62062 58.9481 0.620623 56.3206 2.13814L1.12012 34.0143M120.014 34.0143V97.7687C120.014 100.803 118.396 103.606 115.768 105.123L95.5268 116.812M120.014 34.0143L95.5268 48.1551M1.12012 34.0143V97.7687C1.12012 100.803 2.7385 103.606 5.3657 105.123L25.6075 116.812M1.12012 34.0143L25.6075 48.1551M95.5268 116.812V48.1551M95.5268 116.812L84.0437 109.946M95.5268 48.1551L60.5672 28.2716M60.5672 137L79.7983 125.895C82.4255 124.378 84.0437 121.574 84.0437 118.54V109.946M60.5672 137V109.946M60.5672 137L41.5914 126.042C38.9642 124.525 37.3458 121.722 37.3458 118.688V109.946M84.0437 109.946V95.142M60.5672 109.946L84.0437 95.142M60.5672 109.946L37.3458 95.142M37.3458 109.946L25.6075 116.812M37.3458 109.946V95.142M25.6075 116.812V48.1551M25.6075 48.1551L60.5672 28.2716M60.5672 28.2716V68.3429V81.6149M60.5672 81.6149L84.0437 95.142M60.5672 81.6149L37.3458 95.142" stroke="white" stroke-width="0.906667" stroke-linecap="round" stroke-linejoin="round"/>
<path d="M60.5304 28.1998L25.6357 48.063L1.29883 33.9261L58.0251 1.35769C59.2778 0.820873 62.7851 0.820848 64.6462 2.25243C66.5072 3.68401 102.165 24.084 119.762 34.105L95.6041 48.063L60.5304 28.1998Z" fill="#04193F" stroke="white" stroke-opacity="0.12" stroke-width="0.906667"/>
</svg>
