<svg width="121" height="138" viewBox="0 0 121 138" fill="none" xmlns="http://www.w3.org/2000/svg">
<path d="M64.6894 2.13819L119.885 34.0142V41.7596C119.885 44.7929 118.267 47.596 115.64 49.1131L95.7941 60.5745L119.885 75.0535V97.7691C119.885 100.803 118.267 103.606 115.64 105.123L60.4427 137L5.2451 105.123C2.61822 103.606 1.00007 100.803 1.00007 97.7691V75.0535L25.0912 60.5745L5.24506 49.1131C2.61813 47.596 0.99997 44.7929 1 41.7594L1.00007 34.0142L56.1959 2.13819C58.8237 0.620604 62.0616 0.620603 64.6894 2.13819Z" fill="#0080FF"/>
<path d="M119.885 34.0142L64.6894 2.13819C62.0616 0.620603 58.8237 0.620604 56.1959 2.13819L1.00007 34.0142M119.885 34.0142L60.4427 68.3428M119.885 34.0142V41.7596C119.885 44.7929 118.267 47.596 115.64 49.1131L95.7941 60.5745M1.00007 34.0142L60.4427 68.3428M1.00007 34.0142L1 41.7594C0.99997 44.7929 2.61813 47.596 5.24506 49.1131L25.0912 60.5745M60.4427 68.3428V80.9901M95.7941 60.5745L119.885 75.0535M95.7941 60.5745L83.982 67.6881M60.4427 137L115.64 105.123C118.267 103.606 119.885 100.803 119.885 97.7691V75.0535M60.4427 137L5.2451 105.123C2.61822 103.606 1.00007 100.803 1.00007 97.7691V75.0535M60.4427 137V109.382M119.885 75.0535L60.4427 109.382M1.00007 75.0535L60.4427 109.382M1.00007 75.0535L25.0912 60.5745M25.0912 60.5745L37.0225 67.6881M60.4427 80.9901L83.982 67.6881M60.4427 80.9901L37.0225 67.6881M83.982 67.6881L92.7914 73.1815C94.1514 74.0294 94.117 76.0207 92.729 76.8215L61.5033 94.8326C60.8469 95.2109 60.0385 95.2109 59.382 94.8326L28.1722 76.8308C26.7802 76.0279 26.7503 74.0294 28.1177 73.1853L37.0225 67.6881" stroke="white" stroke-width="0.906667" stroke-linecap="round" stroke-linejoin="round"/>
<path d="M57.5471 1.50268L1.17871 34.0711L60.4103 68.2501L119.821 34.0712C102.642 24.2887 67.604 4.25847 64.884 2.39742C62.164 0.536367 58.8594 1.02549 57.5471 1.50268Z" fill="#050F2C" stroke="white" stroke-opacity="0.12" stroke-width="0.906667"/>
</svg>
