<svg width="157" height="136" viewBox="0 0 157 136" fill="none" xmlns="http://www.w3.org/2000/svg">
<path d="M155.949 68.0234L142.968 90.5577H117.087L104.139 68.0234H155.949Z" fill="#050F2C"/>
<path d="M65.2613 90.5605L52.3127 113.079L39.348 135.613L26.3994 113.079L39.348 90.5605H65.2613Z" fill="#0080FF"/>
<path d="M89.6888 91.4105L77.4726 112.655L77.4725 112.655L64.769 134.763H40.8173L53.0491 113.502L53.0492 113.502L65.7527 91.4105H78.2095H89.6888Z" fill="#050F2C" stroke="white" stroke-width="1.7"/>
<path d="M104.138 113.077L91.1576 135.611L78.209 113.077L91.1576 90.5586L104.138 113.077Z" fill="#0080FF"/>
<path d="M130.019 113.074L117.087 135.608H91.1572L104.138 113.074H130.019Z" fill="#050F2C"/>
<path d="M130.019 113.076H104.138L91.1576 90.5577L78.209 68.0234H104.138L117.087 90.5577L130.019 113.076Z" fill="#050F2C"/>
<path d="M78.2098 22.9536L65.2612 45.4879H39.348L26.3994 22.9536L39.348 0.435547H65.2612L78.2098 22.9536Z" fill="#0080FF"/>
<path d="M65.2609 45.4879L39.3477 0.435547H65.2609L78.2095 22.9536L65.2609 45.4879Z" fill="#050F2C"/>
<path d="M155.948 68.0226H78.208L91.1566 45.4883H142.967L155.948 68.0226Z" fill="#050F2C"/>
<path d="M104.137 22.9536L91.1563 45.4879L78.2077 68.0221H52.3105L65.2591 45.4879L78.2077 22.9536L91.1563 0.435547L104.137 22.9536Z" fill="#0080FF"/>
<path d="M130.021 22.957L117.089 45.4913H91.1592L104.14 22.957H130.021Z" fill="#050F2C"/>
<path d="M130.021 22.9536H104.14L91.1592 0.435547H117.089L130.021 22.9536Z" fill="#050F2C"/>
<path d="M26.3986 68.0284L13.4501 90.5627L0.485352 68.0284L13.4501 45.4941L26.3986 68.0284Z" fill="#0080FF"/>
<path d="M91.1587 90.5577H13.4512L26.3997 68.0234H78.2102L91.1587 90.5577Z" fill="#050F2C"/>
<path d="M65.2616 45.4883L52.313 68.0226H26.3997L13.4512 45.4883H65.2616Z" fill="#050F2C"/>
<path d="M117.296 136H90.9145L78.1919 113.871L65.4694 136H39.0879L25.8971 113.077L38.6358 90.9477H13.1908L0 68.0081L0.113017 67.7974L13.2069 45.0848H38.652L25.9133 22.9396L39.0879 0H65.4694L78.1919 22.129L90.9145 0H117.296L130.487 22.9233L117.764 45.0685H143.209L156.4 67.9919L143.209 90.9477H117.764L130.487 113.077L117.296 136ZM91.3827 135.206H116.844L129.566 113.077L116.376 90.1533H142.741L155.48 68.0081L142.741 45.8791H116.376L129.566 22.9396L116.844 0.794374H91.3827L78.1919 23.7177L65.0173 0.794374H39.5561L26.8336 22.9233L40.0082 45.8791H13.6428L0.90414 68.0081L13.6428 90.1533H40.0082L26.8174 113.077L39.5561 135.206H65.0173L78.2081 112.282L91.3827 135.206Z" fill="white"/>
<path d="M13.7734 90.7531L13.0791 90.3641L25.9147 68.0081L13.0791 45.6846L13.7734 45.2793L26.8349 68.0081L13.7734 90.7531Z" fill="white"/>
<path d="M91.496 135.808L90.8018 135.419L103.896 112.674H130.019V113.484H104.348L91.496 135.808Z" fill="white"/>
<path d="M130.019 23.3269H103.896L90.8018 0.614277L91.496 0.208984L104.348 22.5325H130.019V23.3269Z" fill="white"/>
<path d="M52.5207 68.3983H26.3652V67.6039H52.0686L77.8528 22.7461L78.547 23.1352L52.5207 68.3983Z" fill="white"/>
<path d="M78.4362 68.3983H52.2969V67.6039H77.9841L103.768 22.7461L104.462 23.1352L78.4362 68.3983Z" fill="white"/>
<path d="M117.07 45.0859H91.1406V45.8803H117.07V45.0859Z" fill="white"/>
<path d="M116.732 90.7519L103.444 67.6016H155.949V68.3959H104.801L117.41 90.3628L116.732 90.7519Z" fill="white"/>
<path d="M103.765 113.286L77.5127 67.6016H104.12V68.3959H78.8689L104.459 112.881L103.765 113.286Z" fill="white"/>
<path d="M64.9356 45.0859H39.3291V45.8803H64.9356V45.0859Z" fill="white"/>
<path d="M91.1557 90.1504H39.3291V90.9448H91.1557V90.1504Z" fill="white"/>
</svg>
