<svg width="64" height="62" viewBox="0 0 64 62" fill="none" xmlns="http://www.w3.org/2000/svg">
<path fill-rule="evenodd" clip-rule="evenodd" d="M42.834 54.9889C42.5417 55.2368 42.2462 55.4826 41.9464 55.7273L41.9518 55.6766C41.9491 55.6788 41.9461 55.6809 41.9432 55.683C41.9402 55.6851 41.9373 55.6872 41.9346 55.6893C41.9293 55.6935 41.9229 55.6977 41.9175 55.702C41.9111 55.7062 41.9057 55.7104 41.8993 55.7136C41.8961 55.7151 41.8932 55.717 41.8902 55.7188C41.8873 55.7207 41.8843 55.7225 41.8811 55.7241C41.8779 55.7257 41.8749 55.7273 41.872 55.7289C41.869 55.7304 41.8661 55.732 41.8629 55.7336C41.8593 55.7357 41.8552 55.7374 41.851 55.7392C41.8489 55.7401 41.8468 55.741 41.8447 55.742C41.8383 55.7452 41.8319 55.7484 41.8254 55.7505C41.819 55.7536 41.8126 55.7558 41.8062 55.7579L41.7869 55.7642C41.7805 55.7663 41.774 55.7674 41.7676 55.7695C41.7601 55.7705 41.7537 55.7726 41.7473 55.7737C41.7398 55.7758 41.7333 55.7768 41.7269 55.7779C41.7205 55.779 41.713 55.7811 41.7066 55.7811C41.7002 55.7821 41.6927 55.7832 41.6862 55.7832C41.6798 55.7842 41.6723 55.7842 41.6659 55.7842L41.6455 55.7842L41.6316 55.7842L41.6177 55.7842L41.6038 55.7842C41.5995 55.7832 41.5942 55.7832 41.5899 55.7832C41.5872 55.7825 41.5841 55.7819 41.5811 55.7815C41.5793 55.7812 41.5776 55.7811 41.5759 55.7811C41.5738 55.7811 41.5714 55.7805 41.569 55.78C41.5666 55.7795 41.5642 55.779 41.562 55.779C41.5602 55.7785 41.5581 55.7778 41.556 55.7772C41.5533 55.7765 41.5505 55.7758 41.5481 55.7758L41.5342 55.7726L41.5203 55.7695C41.5176 55.7688 41.5146 55.7678 41.5117 55.7668C41.5098 55.7662 41.508 55.7657 41.5064 55.7652C41.5042 55.7647 41.5018 55.7639 41.4994 55.7631C41.497 55.7623 41.4946 55.7616 41.4924 55.761C41.4881 55.7589 41.4828 55.7579 41.4785 55.7557C41.4764 55.7549 41.4745 55.7542 41.4726 55.7536C41.4698 55.7526 41.4672 55.7518 41.4646 55.7505C41.4592 55.7494 41.455 55.7473 41.4507 55.7452L41.4378 55.7389L41.425 55.7325L41.1177 55.5606L40.8104 55.3887L40.5031 55.2168L40.1958 55.0448L39.8885 54.8729L39.5812 54.701L39.2739 54.5291L38.9666 54.3571L38.6593 54.1852L38.352 54.0133L38.0447 53.8413L37.7374 53.6694L37.4301 53.4975L37.1228 53.3256L36.8155 53.1536L36.5082 52.9817L36.5072 52.9817L36.5061 52.9817L36.505 52.9817L36.504 52.9817L36.5029 52.9817L36.5018 52.9817L36.4954 52.9785L36.489 52.9754C36.4879 52.9743 36.4858 52.9733 36.4837 52.9722L36.4836 52.9722C36.4825 52.9712 36.4804 52.9701 36.4783 52.969C36.4772 52.9669 36.4751 52.9659 36.4729 52.9648C36.4718 52.9627 36.4697 52.9617 36.4676 52.9606L36.4675 52.9606C36.4664 52.9595 36.4643 52.9574 36.4622 52.9564C36.4611 52.9553 36.459 52.9532 36.4569 52.9522C36.4558 52.9516 36.455 52.9508 36.4542 52.9501C36.4534 52.9493 36.4526 52.9485 36.4515 52.9479C36.4504 52.9474 36.4496 52.9466 36.4488 52.9458C36.448 52.945 36.4472 52.9443 36.4461 52.9437C36.4445 52.9429 36.4435 52.9415 36.4422 52.9404C36.4417 52.9401 36.4413 52.9398 36.4408 52.9395C36.4386 52.9385 36.4376 52.9363 36.4354 52.9353C36.4344 52.9348 36.4336 52.934 36.4328 52.9332C36.432 52.9324 36.4312 52.9316 36.4301 52.9311C36.4279 52.93 36.4269 52.9279 36.4247 52.9269C36.4237 52.9263 36.4229 52.9255 36.4221 52.9247C36.4213 52.924 36.4205 52.9232 36.4194 52.9226L36.414 52.9174C36.4033 52.9079 36.3937 52.8973 36.384 52.8868C36.3744 52.8762 36.3658 52.8657 36.3573 52.8541C36.3487 52.8425 36.3412 52.8309 36.3337 52.8193C36.3288 52.8117 36.3244 52.804 36.3201 52.7961C36.3178 52.792 36.3156 52.7878 36.3134 52.7834C36.3069 52.7718 36.3016 52.7591 36.2962 52.7465C36.2948 52.7423 36.2933 52.738 36.2917 52.7338C36.2886 52.7254 36.2855 52.717 36.2834 52.7085L36.2738 52.6695C36.2705 52.6558 36.2684 52.6431 36.2673 52.6294C36.2652 52.6157 36.2641 52.603 36.2641 52.5893L36.2641 52.5492C36.2652 52.5355 36.2663 52.5229 36.2684 52.5092C36.2705 52.4955 36.2727 52.4828 36.2759 52.4691C36.277 52.4628 36.2786 52.4563 36.2804 52.4497C36.2823 52.4431 36.2844 52.4364 36.2866 52.4301C36.2909 52.4164 36.2962 52.4037 36.3016 52.3911L36.3016 52.391C36.307 52.3784 36.3134 52.3657 36.3198 52.3531C36.3235 52.3473 36.3273 52.3412 36.331 52.3352C36.3348 52.3291 36.3385 52.323 36.3423 52.3172L36.3423 52.3151L36.3423 52.313L36.3423 52.3109L36.3423 52.3088L36.3423 52.3066L36.3423 52.3045L36.3423 52.3024L36.3423 52.3003C36.3476 52.2929 36.384 52.2434 36.4472 52.1548C36.5104 52.0662 36.6014 51.9385 36.716 51.775L36.7388 51.7425C36.8488 51.5855 36.9802 51.3981 37.1293 51.1812C37.2888 50.9492 37.4697 50.6855 37.6689 50.3912C37.8681 50.0979 38.0843 49.7741 38.3156 49.424C38.5469 49.0738 38.7932 48.6972 39.0501 48.2975C39.3082 47.8977 39.5769 47.4747 39.8542 47.0307C40.1316 46.5866 40.4174 46.1225 40.7087 45.6415C40.9999 45.1606 41.2954 44.6617 41.5942 44.149C41.8918 43.6364 42.1927 43.1101 42.4914 42.5722C42.7901 42.0342 43.0889 41.4857 43.3823 40.9288C43.6767 40.3719 43.9658 39.8076 44.2485 39.238C44.5311 38.6684 44.8052 38.0936 45.0697 37.5177C45.3342 36.9418 45.5879 36.3638 45.8278 35.7868C46.0676 35.2109 46.2935 34.635 46.5034 34.0644C46.7133 33.4937 46.906 32.9273 47.0784 32.3683L46.9606 32.3366L46.9399 32.331C46.908 32.3223 46.8756 32.3135 46.8439 32.3039C46.8248 32.2982 46.8054 32.2924 46.786 32.2867C46.7663 32.2808 46.7466 32.275 46.7272 32.2691C46.6886 32.2575 46.6501 32.2459 46.6115 32.2333L46.4959 32.1953C46.4767 32.1888 46.4573 32.1823 46.4377 32.1757C46.419 32.1694 46.4002 32.163 46.3813 32.1563C46.3428 32.1426 46.3053 32.1288 46.2668 32.1151C46.2293 32.1014 46.1907 32.0867 46.1533 32.0729C46.1158 32.0592 46.0772 32.0445 46.0398 32.0297C46.0023 32.0149 45.9648 32.0002 45.9274 31.9843C45.8899 31.9696 45.8524 31.9538 45.8149 31.9379C45.7775 31.9221 45.741 31.9052 45.7036 31.8894C45.6661 31.8736 45.6286 31.8567 45.5922 31.8398C45.5723 31.8306 45.552 31.821 45.5318 31.8115C45.5151 31.8036 45.4984 31.7958 45.4819 31.7882C45.4445 31.7713 45.4081 31.7533 45.3716 31.7354C45.3352 31.7185 45.2988 31.6996 45.2624 31.6816L44.9509 31.5245L44.6393 31.3673L44.3277 31.2101L44.0161 31.053L43.7045 30.8958L43.393 30.7387L43.0814 30.5815L42.7698 30.4243L42.4582 30.2672L42.1466 30.11L41.8351 29.9529L41.5235 29.7957L41.2119 29.6385L40.9003 29.4814L40.5888 29.3242L40.2772 29.167C40.2269 29.1417 40.1765 29.1154 40.1262 29.089C40.0759 29.0626 40.0256 29.0352 39.9763 29.0078C39.9261 28.9804 39.8769 28.952 39.8278 28.9236L39.8275 28.9234C39.7782 28.8949 39.73 28.8664 39.6808 28.8369C39.6326 28.8074 39.5833 28.7778 39.5352 28.7472C39.487 28.7167 39.4388 28.6861 39.3906 28.6544C39.3424 28.6228 39.2943 28.5911 39.2471 28.5584C39.2 28.5268 39.1529 28.4941 39.1058 28.4603C39.064 28.4313 39.0222 28.4007 38.9812 28.3705L38.9655 28.3591L38.8274 28.2547C38.7814 28.2188 38.7353 28.1829 38.6904 28.1471C38.6455 28.1113 38.6006 28.0744 38.5557 28.0376L38.5555 28.0374C38.5105 28.0005 38.4655 27.9625 38.4216 27.9245L38.4072 27.912C38.3672 27.8774 38.328 27.8433 38.2889 27.8085C38.245 27.7695 38.2011 27.7304 38.1582 27.6904L38.1578 27.69C38.1151 27.65 38.0724 27.6101 38.0297 27.5691C37.9152 27.4604 37.8038 27.3486 37.6946 27.2336C37.5854 27.1197 37.4783 27.0027 37.3745 26.8824C37.2695 26.7622 37.1689 26.6398 37.0693 26.5153C36.9708 26.3909 36.8744 26.2633 36.7802 26.1335C36.686 26.0038 36.595 25.8719 36.5061 25.7369C36.4172 25.6019 36.3305 25.4648 36.247 25.3256C36.1635 25.1863 36.0821 25.0439 36.0039 24.9005C35.9258 24.757 35.8498 24.6115 35.777 24.4628C35.7041 24.314 35.6335 24.1632 35.566 24.0113C35.4986 23.8594 35.4333 23.7044 35.3712 23.5483C35.309 23.3922 35.2491 23.2339 35.1923 23.0736C35.1356 22.9133 35.081 22.7519 35.0296 22.5874C34.9782 22.4228 34.93 22.2572 34.884 22.0895C34.8379 21.9229 34.7951 21.753 34.7544 21.5822C34.7137 21.4113 34.6763 21.2383 34.642 21.0643C34.6077 20.8902 34.5756 20.7141 34.5467 20.5369C34.5071 20.789 34.46 21.0685 34.4064 21.3733C34.3518 21.6792 34.2908 22.0094 34.2212 22.3648C34.1516 22.7203 34.0724 23.0989 33.9856 23.5008C33.8989 23.9027 33.8025 24.3267 33.6955 24.7718C33.5884 25.2169 33.4717 25.6821 33.3443 26.1673C33.2158 26.6525 33.0777 27.1566 32.9267 27.6777C32.7757 28.1988 32.6141 28.7378 32.4385 29.2926C32.2629 29.8474 32.0755 30.418 31.8742 31.0023C31.6729 31.5867 31.4577 32.1858 31.2285 32.7976C30.9994 33.4083 30.7553 34.0327 30.4962 34.6677C30.2371 35.3027 29.9619 35.9482 29.6717 36.6032C29.3816 37.2582 29.0753 37.9227 28.7509 38.5946C28.4265 39.2665 28.086 39.9458 27.7273 40.6314C27.3686 41.317 26.9917 42.0089 26.5966 42.704C26.2015 43.3991 25.7872 44.0995 25.3535 44.8019C24.9199 45.5044 24.467 46.2101 23.9926 46.9157C23.7763 47.2374 23.5558 47.5602 23.3309 47.8829C23.105 48.2057 22.8759 48.5285 22.6425 48.8512C22.409 49.174 22.1713 49.4967 21.9283 49.8184C21.6852 50.1401 21.4379 50.4618 21.1863 50.7836C20.9347 51.1053 20.6788 51.4259 20.4175 51.7466C20.1562 52.0672 19.8907 52.3868 19.6198 52.7064C19.35 53.0249 19.0748 53.3435 18.7943 53.661C18.5138 53.9785 18.229 54.2949 17.9388 54.6103C17.6486 54.9256 17.3542 55.24 17.0544 55.5532C16.7546 55.8665 16.4505 56.1777 16.14 56.4888C15.8295 56.8 15.5147 57.109 15.1945 57.417C14.8744 57.725 14.5489 58.0309 14.218 58.3357C13.8872 58.6395 13.5521 58.9433 13.2105 59.2439C12.8689 59.5455 12.5231 59.8451 12.1708 60.1415C11.8186 60.4379 11.4609 60.7332 11.098 61.0264C10.735 61.3197 10.3667 61.6097 9.993 61.8987L9.97694 61.9114C9.97158 61.9156 9.96516 61.9198 9.9598 61.923C9.95714 61.9246 9.95421 61.9264 9.95128 61.9283C9.94832 61.9301 9.94536 61.932 9.94267 61.9335C9.93984 61.9352 9.93701 61.9369 9.93402 61.9386C9.93136 61.9401 9.92857 61.9416 9.92554 61.943C9.92233 61.9446 9.91939 61.9462 9.91644 61.9478C9.9135 61.9494 9.91055 61.9509 9.90734 61.9525C9.9057 61.9533 9.90413 61.9541 9.90259 61.9549C9.89811 61.9572 9.89392 61.9594 9.88914 61.961C9.88649 61.962 9.88358 61.9633 9.88054 61.9646C9.87743 61.966 9.87418 61.9673 9.87093 61.9684C9.86766 61.9696 9.86398 61.9709 9.86015 61.9722C9.85772 61.973 9.85522 61.9739 9.85273 61.9747L9.83346 61.981C9.82703 61.9831 9.82061 61.9852 9.81419 61.9863C9.80776 61.9873 9.80134 61.9895 9.79491 61.9905C9.78849 61.9916 9.78206 61.9937 9.77564 61.9937C9.76922 61.9947 9.76279 61.9968 9.75637 61.9968C9.74994 61.9979 9.74352 61.9989 9.73709 61.9989C9.73067 62 9.72425 62 9.71782 62L9.69855 62L9.68463 62L9.67071 62C9.66857 61.9995 9.66616 61.9995 9.66376 61.9995C9.66135 61.9995 9.65893 61.9995 9.65679 61.9989C9.65409 61.9983 9.65095 61.998 9.64793 61.9979C9.64617 61.9979 9.64445 61.9979 9.64287 61.9979C9.63859 61.9968 9.63323 61.9958 9.62895 61.9958C9.62681 61.9958 9.6244 61.9953 9.62199 61.9947C9.61958 61.9942 9.61717 61.9937 9.61503 61.9937C9.61378 61.9934 9.61245 61.993 9.61107 61.9926C9.60772 61.9916 9.60415 61.9905 9.60111 61.9905L9.58719 61.9873L9.57327 61.9842C9.57219 61.9839 9.57103 61.9836 9.56984 61.9832C9.56634 61.9821 9.56255 61.9807 9.55935 61.98C9.55721 61.9794 9.55481 61.9786 9.5524 61.9779C9.54999 61.9771 9.54758 61.9763 9.54544 61.9757C9.54332 61.9749 9.54137 61.9742 9.53953 61.9736C9.5367 61.9726 9.53411 61.9717 9.53152 61.9705C9.52616 61.9684 9.52188 61.9673 9.5176 61.9652C9.51226 61.9641 9.50798 61.962 9.50371 61.9599L9.50368 61.9599L9.49083 61.9536L9.47798 61.9473L9.47584 61.9473L9.4737 61.9473L9.47156 61.9473L9.46942 61.9473L9.46727 61.9473L9.46513 61.9473L9.46299 61.9473L9.46085 61.9473L9.45871 61.9473L9.45657 61.9473L9.45443 61.9473L9.45228 61.9473L9.45014 61.9473C9.44907 61.9462 9.448 61.9462 9.448 61.9462C9.44693 61.9452 9.44586 61.9452 9.44586 61.9452C9.44479 61.9441 9.44372 61.9441 9.44372 61.9441C9.44265 61.943 9.44158 61.943 9.44158 61.943C9.44051 61.943 9.43943 61.9409 9.43943 61.9409L9.43729 61.9409C9.43622 61.9399 9.43515 61.9399 9.43515 61.9399C9.43408 61.9388 9.43301 61.9388 9.43301 61.9388C9.43194 61.9378 9.43087 61.9378 9.43087 61.9378C9.4298 61.9367 9.42873 61.9367 9.42873 61.9367C9.42766 61.9357 9.42659 61.9357 9.42659 61.9357C9.42552 61.9346 9.42444 61.9346 9.42444 61.9346C9.42337 61.9346 9.4223 61.9325 9.4223 61.9325L9.42016 61.9325C9.41909 61.9314 9.41802 61.9314 9.41802 61.9314C9.41695 61.9304 9.41588 61.9304 9.41588 61.9304C9.41481 61.9293 9.41374 61.9293 9.41374 61.9293C9.41267 61.9283 9.4116 61.9283 9.4116 61.9283C9.41052 61.9272 9.40945 61.9272 9.40945 61.9272L9.12357 61.7532L8.83769 61.5791L8.55181 61.4051L8.26593 61.2311L7.98005 61.057L7.69417 60.883L7.40828 60.709L7.1224 60.5349L6.83652 60.3609L6.55064 60.1868L6.26476 60.0128L5.97888 59.8388L5.69299 59.6647L5.40711 59.4907L5.12123 59.3167L4.83535 59.1426L4.83428 59.1426C4.83321 59.1426 4.83321 59.1437 4.83214 59.1426C4.83107 59.1416 4.83 59.1416 4.83 59.1416C4.83 59.1405 4.82785 59.1405 4.82785 59.1405C4.82785 59.1395 4.82571 59.1395 4.82571 59.1395C4.82571 59.1384 4.82357 59.1384 4.82357 59.1384C4.82357 59.1373 4.82143 59.1373 4.82143 59.1373C4.82143 59.1363 4.81929 59.1363 4.81929 59.1363C4.81822 59.1352 4.81715 59.1352 4.81715 59.1352C4.81608 59.1342 4.81501 59.1342 4.81501 59.1342C4.81394 59.1331 4.81394 59.1331 4.81286 59.1331L4.81179 59.1331C4.81072 59.1326 4.80992 59.1321 4.80912 59.1315C4.80831 59.131 4.80751 59.1305 4.80644 59.13C4.80537 59.1294 4.80457 59.1289 4.80376 59.1284C4.80296 59.1279 4.80216 59.1273 4.80109 59.1268C4.80002 59.1263 4.79921 59.1257 4.79841 59.1252C4.79761 59.1247 4.7968 59.1242 4.79573 59.1236C4.79418 59.1229 4.79319 59.1221 4.79195 59.1213C4.79148 59.121 4.79097 59.1208 4.79038 59.1205C4.78964 59.1201 4.78902 59.1197 4.78845 59.1194C4.78736 59.1187 4.78642 59.118 4.78503 59.1173C4.78288 59.1152 4.78181 59.1141 4.77967 59.1131C4.77753 59.111 4.77646 59.1099 4.77432 59.1089C4.77321 59.1078 4.77238 59.107 4.77155 59.1063C4.77078 59.1057 4.76999 59.1052 4.76897 59.1046C4.76789 59.1041 4.76709 59.1033 4.76629 59.1025C4.76549 59.1017 4.76468 59.101 4.76361 59.1004C4.76254 59.0999 4.76174 59.0991 4.76093 59.0983C4.76013 59.0975 4.75933 59.0967 4.75826 59.0962C4.75719 59.0957 4.75638 59.0949 4.75558 59.0941C4.75478 59.0933 4.75397 59.0925 4.7529 59.092C4.75187 59.0915 4.75108 59.0907 4.75031 59.09C4.74948 59.0891 4.74866 59.0883 4.74755 59.0878C4.74541 59.0867 4.74434 59.0846 4.7422 59.0836C4.74006 59.0825 4.73899 59.0804 4.73684 59.0793C4.73577 59.0788 4.73497 59.078 4.73417 59.0772C4.73336 59.0764 4.73256 59.0756 4.73149 59.0751L4.72721 59.0709C4.71757 59.0614 4.70686 59.0509 4.6983 59.0403C4.68866 59.0298 4.6801 59.0192 4.6726 59.0076C4.66404 58.9971 4.65654 58.9855 4.65012 58.9739C4.64262 58.9623 4.6362 58.9496 4.63084 58.938C4.62442 58.9253 4.62014 58.9137 4.61478 58.9011C4.60943 58.8884 4.60515 58.8758 4.60193 58.8631C4.59765 58.8494 4.59444 58.8367 4.5923 58.8241C4.58908 58.8114 4.58694 58.7977 4.58587 58.7851C4.5848 58.7724 4.58373 58.7587 4.58373 58.746C4.58301 58.7368 4.58326 58.7276 4.5835 58.7187C4.58362 58.7143 4.58373 58.7101 4.58373 58.7059L4.58396 58.7032C4.58496 58.6913 4.58603 58.6787 4.58801 58.6669L4.58881 58.6622C4.5907 58.6509 4.5927 58.639 4.59551 58.6279C4.59872 58.6142 4.60193 58.6015 4.60622 58.5889C4.6105 58.5762 4.61585 58.5635 4.62121 58.5509C4.62656 58.5382 4.63298 58.5266 4.63941 58.514C4.64583 58.5013 4.65333 58.4897 4.66082 58.4781L4.66082 58.4749L4.66082 58.4718L4.66082 58.4686L4.66082 58.4655L4.66082 58.4623L4.66082 58.4591L4.66082 58.456L4.66082 58.4528C4.66406 58.448 4.67626 58.4317 4.69688 58.4042C4.71719 58.3771 4.74568 58.3391 4.78181 58.2904C4.85462 58.1923 4.95848 58.0509 5.09018 57.8695C5.22188 57.6881 5.38142 57.4676 5.56451 57.2103C5.74867 56.9529 5.95532 56.6597 6.18338 56.3338C6.41145 56.0078 6.65878 55.6492 6.92325 55.2611C7.18772 54.8729 7.46932 54.4552 7.76269 54.0122C8.05714 53.5692 8.36336 53.0998 8.67923 52.6083C8.99509 52.1168 9.31952 51.6031 9.65037 51.0694C9.98122 50.5367 10.3174 49.984 10.6547 49.4166C10.993 48.8491 11.3325 48.2658 11.6697 47.6699C12.007 47.0739 12.3432 46.4664 12.673 45.8504C13.0028 45.2344 13.3272 44.61 13.642 43.9792C13.9568 43.3495 14.263 42.7135 14.5553 42.0764C14.8476 41.4393 15.1271 40.8001 15.3905 40.163C15.6539 39.526 15.9001 38.8899 16.1261 38.2592C16.352 37.6284 16.5576 37.0029 16.7385 36.3859C16.625 36.3775 16.5126 36.3669 16.4002 36.3564L16.4002 36.3564C16.2877 36.3458 16.1753 36.3321 16.064 36.3184C15.9526 36.3047 15.8413 36.2889 15.7299 36.272C15.6186 36.2541 15.5083 36.2361 15.398 36.2161C15.2877 36.196 15.1785 36.1749 15.0693 36.1517C14.9601 36.1285 14.8508 36.1043 14.7427 36.079C14.6346 36.0536 14.5264 36.0262 14.4193 35.9977C14.3112 35.9693 14.2041 35.9397 14.0981 35.9081C13.9911 35.8764 13.8851 35.8438 13.7801 35.81C13.6752 35.7762 13.5703 35.7404 13.4653 35.7035C13.3615 35.6665 13.2576 35.6286 13.1538 35.5885C13.051 35.5484 12.9471 35.5073 12.8454 35.4651C12.7426 35.4229 12.6409 35.3786 12.5402 35.3332C12.4385 35.2879 12.3379 35.2415 12.2383 35.193C12.1387 35.1455 12.0391 35.0959 11.9406 35.0453C11.8421 34.9947 11.7436 34.943 11.6462 34.8892L11.356 34.7299L11.0659 34.5706L10.7757 34.4114L10.4855 34.2521L10.1954 34.0928L9.9052 33.9336L9.61504 33.7743L9.32487 33.615L9.03471 33.4557L8.74454 33.2965L8.45438 33.1372L8.16422 32.9779L7.87405 32.8187L7.58389 32.6594L7.29372 32.5001L7.00356 32.3409C6.95002 32.3113 6.89649 32.2818 6.84295 32.2512C6.78941 32.2206 6.73588 32.19 6.68341 32.1584C6.62988 32.1267 6.57741 32.0951 6.52495 32.0634C6.47248 32.0318 6.42002 31.9991 6.36755 31.9664C6.31509 31.9337 6.26262 31.9 6.21123 31.8662C6.15983 31.8325 6.10844 31.7987 6.05704 31.7639C6.00565 31.7301 5.95533 31.6953 5.90393 31.6595C5.85254 31.6236 5.80221 31.5877 5.75189 31.5519C5.70157 31.516 5.65124 31.4791 5.60092 31.4422C5.58609 31.4311 5.57117 31.42 5.55621 31.4088C5.52146 31.3829 5.48651 31.3569 5.45209 31.3304C5.40283 31.2924 5.35358 31.2544 5.30433 31.2154C5.25508 31.1764 5.20582 31.1374 5.15764 31.0983C5.10956 31.0594 5.06149 31.0194 5.01341 30.9794L5.01309 30.9791C4.96491 30.9391 4.91673 30.8979 4.86962 30.8568C4.82144 30.8156 4.77432 30.7745 4.72721 30.7323C4.6988 30.7075 4.67079 30.6819 4.64269 30.6563C4.62419 30.6394 4.60565 30.6225 4.58695 30.6057C4.39208 30.4264 4.20256 30.2419 4.0184 30.0509C3.83423 29.86 3.6565 29.6638 3.48411 29.4613C3.31172 29.2599 3.14576 29.0521 2.98516 28.839C2.82455 28.6259 2.67036 28.4076 2.52261 28.185C2.37378 27.9625 2.23244 27.7347 2.09646 27.5016C1.96048 27.2685 1.83092 27.0311 1.70779 26.7896C1.58466 26.548 1.46795 26.3012 1.35767 26.0512C1.24738 25.8002 1.14352 25.546 1.04609 25.2876C0.948651 25.0292 0.858711 24.7665 0.774124 24.5007C0.689538 24.2349 0.612446 23.966 0.541779 23.6928C0.471112 23.4196 0.406869 23.1443 0.350121 22.8648C0.292302 22.5863 0.243049 22.3036 0.19915 22.0188C0.15525 21.7341 0.118846 21.4461 0.0899366 21.156C0.0610272 20.866 0.0385422 20.5738 0.0235522 20.2785C0.00856225 19.9831 -3.44196e-06 19.6857 -3.38976e-06 19.3872C-3.33739e-06 19.0876 0.00642102 18.787 0.018199 18.4832C0.0460377 17.8831 0.102786 17.2882 0.186302 16.6996C0.269818 16.1111 0.379031 15.5299 0.513942 14.9571C0.648852 14.3855 0.808389 13.8212 0.991482 13.2674C1.17457 12.7136 1.38122 12.1704 1.61036 11.6388C1.83949 11.1072 2.09004 10.5883 2.36093 10.082C2.63182 9.57569 2.92306 9.08312 3.23357 8.60636C3.54407 8.1296 3.87278 7.66761 4.2197 7.2225C4.56661 6.77738 4.93065 6.34914 5.31076 5.93884C5.68979 5.52959 6.08596 5.13827 6.49604 4.76699C6.90613 4.39571 7.3312 4.04447 7.76806 3.71538C8.20598 3.38629 8.65568 3.0783 9.11716 2.79456C9.57864 2.50977 10.0508 2.24925 10.5337 2.01403C11.0166 1.77882 11.5091 1.56786 12.0092 1.38433C12.5092 1.2008 13.0189 1.04364 13.5339 0.914959C14.05 0.786276 14.5714 0.686073 15.0993 0.615403C15.6271 0.544734 16.1593 0.503598 16.6957 0.49516C16.8188 0.49305 16.9409 0.49305 17.063 0.49516C17.185 0.497269 17.3071 0.500434 17.4281 0.505708C17.5491 0.510981 17.67 0.51731 17.79 0.525748C17.911 0.534186 18.0309 0.543679 18.1497 0.555282C18.2686 0.566884 18.3885 0.580597 18.5063 0.595363C18.6241 0.61013 18.7429 0.627007 18.8596 0.644938C18.9763 0.662869 19.093 0.68291 19.2097 0.704005C19.3254 0.725101 19.441 0.748306 19.5567 0.772565C19.6723 0.796825 19.7858 0.823194 19.9004 0.850619C20.0149 0.878043 20.1284 0.907576 20.2408 0.938165L20.2409 0.938184C20.3533 0.96982 20.4657 1.00146 20.577 1.0352C20.6884 1.06896 20.7998 1.10376 20.91 1.14068C21.0203 1.1776 21.1295 1.21557 21.2388 1.25565C21.348 1.29573 21.4561 1.33687 21.5642 1.38011C21.6724 1.42231 21.7795 1.46661 21.8855 1.51302C21.9915 1.55943 22.0975 1.60689 22.2024 1.65541L22.2174 1.66279L22.2324 1.67018L22.2474 1.67756L22.2624 1.68494L22.2773 1.69233L22.2923 1.69971L22.3073 1.70709L22.3223 1.71448L22.3373 1.72186L22.3523 1.72924L22.3673 1.73663L22.3823 1.74401L22.3973 1.75139L22.4123 1.75878L22.4272 1.76616L22.4422 1.77355L22.727 1.90645L23.0119 2.03935L23.2967 2.17225L23.5815 2.30515L23.8663 2.43805L24.1511 2.57095L24.4359 2.70385L24.7207 2.83676L25.0055 2.96966L25.2903 3.10256L25.5752 3.23546L25.86 3.36836L26.1448 3.50126L26.4296 3.63416L26.7144 3.76707L26.9992 3.89997C27.0003 3.90102 27.0014 3.90102 27.0014 3.90102C27.0024 3.90208 27.0035 3.90208 27.0035 3.90208C27.0046 3.90313 27.0056 3.90313 27.0056 3.90313C27.0067 3.90419 27.0078 3.90419 27.0078 3.90419C27.0088 3.90524 27.0099 3.90524 27.0099 3.90524C27.011 3.9063 27.0121 3.9063 27.0121 3.9063C27.0131 3.90735 27.0142 3.90735 27.0142 3.90735C27.0153 3.9084 27.0163 3.90841 27.0163 3.90841C27.0174 3.90946 27.0185 3.90946 27.0185 3.90946C27.019 3.90999 27.0193 3.90999 27.0196 3.90999C27.0198 3.90999 27.0201 3.90999 27.0206 3.91051C27.0217 3.91157 27.0228 3.91157 27.0228 3.91157C27.0238 3.91262 27.0238 3.91262 27.0249 3.91262C27.026 3.91262 27.027 3.91473 27.027 3.91473L27.0292 3.91473C27.0303 3.91473 27.0313 3.91684 27.0313 3.91684L27.0335 3.91684L27.0592 3.9295L27.0849 3.94216L27.1106 3.95481L27.1363 3.96747L27.162 3.98013L27.1877 3.99279L27.2134 4.00544L27.2391 4.0181L27.2647 4.03076L27.2904 4.04342L27.3161 4.05607L27.3418 4.06873L27.3675 4.08139L27.3932 4.09404L27.4189 4.1067L27.4446 4.11936L27.4447 4.11941C27.5207 4.15948 27.5967 4.19954 27.6727 4.24066C27.6863 4.24822 27.6999 4.25575 27.7135 4.26327C27.7756 4.29767 27.8371 4.33174 27.8986 4.36723C27.9736 4.41048 28.0474 4.45372 28.1213 4.49802C28.1952 4.54232 28.2691 4.58768 28.3419 4.63409C28.4147 4.67944 28.4875 4.72691 28.5592 4.77437C28.631 4.82184 28.7027 4.87036 28.7745 4.91993C28.8451 4.96845 28.9158 5.01908 28.9865 5.06971C29.0571 5.12034 29.1267 5.17202 29.1963 5.22476C29.2659 5.27645 29.3344 5.33024 29.403 5.38403C29.4715 5.43783 29.54 5.49267 29.6075 5.54858L29.6075 5.54862C29.675 5.60451 29.7424 5.6604 29.8088 5.71734C29.8259 5.7323 29.843 5.74718 29.8601 5.76205C29.9093 5.80486 29.9584 5.84754 30.0069 5.89138C30.0722 5.95045 30.1375 6.00951 30.2017 6.06963C30.266 6.12976 30.3302 6.19093 30.3934 6.25211C30.4576 6.31434 30.5208 6.37657 30.5829 6.43986C30.6461 6.50315 30.7082 6.56749 30.7692 6.63183C30.8945 6.76367 31.0165 6.89869 31.1365 7.03581C31.2564 7.17293 31.3731 7.31216 31.4877 7.45455C31.6012 7.59695 31.7136 7.74145 31.8217 7.88806C31.9309 8.03573 32.0369 8.18445 32.1397 8.33634C32.2436 8.48823 32.3432 8.64223 32.4406 8.79833C32.538 8.95444 32.6323 9.11265 32.7243 9.27298C32.8153 9.4333 32.9042 9.59574 32.9899 9.76028C33.0755 9.92483 33.158 10.0915 33.2383 10.2592C33.3175 10.428 33.3946 10.5978 33.4685 10.7697C33.5424 10.9416 33.6141 11.1157 33.6816 11.2908C33.7501 11.4669 33.8143 11.6441 33.8764 11.8224C33.9385 12.0006 33.9974 12.182 34.0531 12.3635C34.1098 12.5459 34.1623 12.7295 34.2116 12.9141C34.2608 13.0986 34.3079 13.2853 34.3508 13.4731C34.3947 13.6608 34.4343 13.8507 34.4717 14.0406C34.5092 14.2315 34.5424 14.4224 34.5735 14.6154C34.6591 14.1175 34.763 13.626 34.885 13.1408C35.006 12.6556 35.1452 12.1768 35.3016 11.7063C35.4568 11.2359 35.6303 10.7739 35.8176 10.3204C36.0061 9.86682 36.2095 9.42276 36.4269 8.98925C36.6442 8.55468 36.8766 8.13172 37.1218 7.72035C37.367 7.30899 37.6261 6.90923 37.897 6.52213C38.1679 6.13503 38.4505 5.76164 38.745 5.40091C39.0394 5.04018 39.3446 4.69421 39.6604 4.36407C39.9763 4.03287 40.3018 3.71749 40.6359 3.41899C40.9699 3.12049 41.3126 2.83781 41.6648 2.57412C42.0171 2.31043 42.3758 2.06361 42.742 1.83578C43.1082 1.60795 43.4808 1.40016 43.8598 1.21136C44.2388 1.02255 44.6232 0.854842 45.0119 0.708229C45.4016 0.561615 45.7946 0.436097 46.1918 0.333785C46.5891 0.231472 46.9906 0.151309 47.3932 0.0954062C47.7958 0.0395034 48.2016 0.00680549 48.6084 0.000476923C48.6375 0.000476928 48.6664 0.000358759 48.6952 0.000241082C48.7524 8.1585e-06 48.8091 -0.000224762 48.8654 0.000476968C48.95 0.00153175 49.0346 0.00258654 49.1192 0.00575087C49.2038 0.00891521 49.2873 0.0120795 49.3708 0.0173534C49.4543 0.0226273 49.5378 0.0279012 49.6203 0.0352846C49.7027 0.042668 49.7851 0.0500514 49.8676 0.0595444C49.95 0.0690374 50.0314 0.0785303 50.1128 0.0901328L50.1282 0.0923525C50.2035 0.103223 50.2796 0.114212 50.3548 0.12705C50.4351 0.140762 50.5154 0.154474 50.5946 0.170296C50.6738 0.186117 50.7531 0.201939 50.8323 0.21987C50.9115 0.237801 50.9897 0.255732 51.0679 0.275773C51.146 0.295814 51.2231 0.315854 51.3002 0.338005C51.3773 0.360155 51.4544 0.38336 51.5304 0.406565C51.6075 0.42977 51.6835 0.455084 51.7585 0.480399C51.8334 0.505714 51.9084 0.533138 51.9833 0.560562C52.0583 0.587986 52.1322 0.617519 52.206 0.647053C52.2799 0.677642 52.3527 0.70823 52.4255 0.739873L52.7446 0.879103L53.0637 1.01833L53.3828 1.15756L53.7018 1.29679L54.0209 1.43602L54.34 1.57525L54.6591 1.71448L54.9781 1.85371L55.2972 1.99294L55.6163 2.13217L55.9353 2.2714L56.2544 2.41063L56.5735 2.54986L56.8926 2.68909L57.2117 2.82832L57.5307 2.96755C57.535 2.96945 57.5391 2.97122 57.5431 2.97294C57.5502 2.97601 57.5571 2.97895 57.5639 2.98232L57.5971 2.99709C57.6014 2.99899 57.6055 3.00076 57.6095 3.00249C57.6166 3.00554 57.6235 3.00848 57.6303 3.01185C57.6345 3.01376 57.6387 3.01552 57.6427 3.01725C57.6498 3.02031 57.6566 3.02325 57.6635 3.02662C57.6688 3.02926 57.6742 3.03163 57.6795 3.034C57.6849 3.03638 57.6903 3.03875 57.6956 3.04139C57.701 3.0435 57.7063 3.04613 57.7117 3.04877C57.717 3.05141 57.7224 3.05404 57.7277 3.05615C57.7384 3.06037 57.7491 3.06563 57.7598 3.07089L57.7599 3.07092L57.792 3.08674L57.8241 3.10256L57.8562 3.11839L57.8883 3.13421L57.9205 3.15003L57.9526 3.16585L57.9847 3.18167L58.0168 3.19749C58.0275 3.20379 58.0381 3.20904 58.0488 3.21429L58.0489 3.21437C58.11 3.24601 58.171 3.27871 58.231 3.31141C58.2909 3.34411 58.3509 3.37786 58.4109 3.41267C58.4708 3.44747 58.5297 3.48228 58.5886 3.51814C58.6475 3.55401 58.7064 3.59092 58.7642 3.62784C58.822 3.66476 58.8798 3.70273 58.9376 3.74176C58.9944 3.78078 59.0522 3.82086 59.109 3.86095C59.1242 3.87198 59.1394 3.88295 59.1546 3.89389C59.1961 3.92374 59.2374 3.95348 59.2781 3.98435C59.3349 4.02655 59.3906 4.06874 59.4462 4.11198C59.5019 4.15523 59.5576 4.19953 59.6122 4.24383C59.6679 4.28813 59.7214 4.33348 59.776 4.37989C59.8306 4.4263 59.8842 4.47271 59.9377 4.52018C59.9912 4.56764 60.0448 4.61616 60.0972 4.66468C60.1508 4.7132 60.2022 4.76278 60.2546 4.81341C60.3071 4.86403 60.3585 4.91466 60.4099 4.96635C60.4613 5.01803 60.5127 5.07077 60.563 5.12351C60.6133 5.17625 60.6636 5.23004 60.7129 5.28489C60.8724 5.45998 61.0277 5.64035 61.1765 5.82704C61.3253 6.01268 61.4688 6.20465 61.6069 6.40189C61.7451 6.59914 61.8768 6.8006 62.0031 7.00839C62.1295 7.21618 62.2504 7.42819 62.365 7.64442C62.4796 7.86064 62.5888 8.08215 62.6916 8.30787C62.7944 8.53359 62.8918 8.76353 62.9828 8.99769C63.0738 9.23185 63.1595 9.46917 63.2387 9.71177C63.3179 9.95331 63.3908 10.1991 63.4582 10.4491C63.5257 10.699 63.5867 10.9522 63.6413 11.2085C63.6959 11.4659 63.7441 11.7253 63.7869 11.988C63.8287 12.2506 63.8651 12.5164 63.8951 12.7854C63.925 13.0543 63.9486 13.3254 63.9657 13.5997C63.9829 13.8739 63.9936 14.1503 63.9979 14.4287C64.0021 14.7072 64 14.9888 63.9914 15.2715C63.9829 15.5542 63.9668 15.8389 63.9454 16.1258C63.9229 16.4127 63.8951 16.7007 63.8597 16.9908C63.8587 17.0013 63.8512 17.0614 63.8351 17.169C63.819 17.2766 63.7955 17.4306 63.7634 17.6278C63.7312 17.8251 63.6884 18.0666 63.637 18.3472C63.5856 18.6278 63.5225 18.9495 63.4486 19.3091C63.3747 19.6688 63.288 20.0654 63.1895 20.4958C63.091 20.9261 62.9785 21.3913 62.8522 21.887C62.7258 22.3828 62.5845 22.9091 62.4292 23.465C62.274 24.0208 62.1016 24.603 61.9132 25.2117C61.7247 25.8192 61.5191 26.4521 61.2954 27.1071C61.0716 27.761 60.8296 28.4382 60.5683 29.1333C60.3071 29.8284 60.0266 30.5425 59.7246 31.2724C59.4227 32.0012 59.1004 32.747 58.7556 33.5043C58.4108 34.2616 58.0436 35.0316 57.6539 35.8111C57.263 36.5905 56.8497 37.3795 56.4118 38.1748C55.9739 38.9701 55.5103 39.7707 55.022 40.5755C54.5338 41.3803 54.0188 42.1872 53.477 42.9951C53.2928 43.2704 53.1033 43.5468 52.9127 43.8221C52.7221 44.0974 52.5273 44.3727 52.3292 44.6479C52.1311 44.9232 51.9298 45.1985 51.7253 45.4728C51.5208 45.747 51.3131 46.0213 51.1021 46.2955C50.8912 46.5687 50.6771 46.8419 50.4586 47.1151C50.2402 47.3882 50.0186 47.6604 49.7937 47.9315C49.5689 48.2025 49.3408 48.4726 49.1084 48.7426C48.8761 49.0126 48.6405 49.2816 48.4018 49.5495C48.163 49.8174 47.92 50.0842 47.6737 50.35C47.4264 50.6158 47.1769 50.8806 46.9231 51.1443C46.6694 51.408 46.4124 51.6706 46.1511 51.9311C45.8899 52.1917 45.6254 52.4511 45.3567 52.7096C45.0879 52.968 44.8149 53.2254 44.5386 53.4796C44.2624 53.7338 43.9819 53.9869 43.6981 54.239C43.4144 54.4911 43.1263 54.7411 42.834 54.9889ZM53.4429 30.8996L53.4237 30.8996L53.4215 30.9101L53.4097 30.9101L53.398 30.9101L53.3862 30.9101L53.3744 30.9101C53.3719 30.9107 53.3699 30.911 53.3677 30.9111L53.3626 30.9112L53.3588 30.9114C53.3581 30.9115 53.3574 30.9116 53.3567 30.9117C53.3549 30.912 53.353 30.9122 53.3508 30.9122L53.3487 30.9128C53.3454 30.9136 53.3426 30.9143 53.3391 30.9143L53.3353 30.9153C53.3327 30.916 53.3302 30.9164 53.3273 30.9164C53.3259 30.9164 53.3246 30.9167 53.3233 30.917C53.3219 30.9173 53.3205 30.9178 53.3191 30.9181C53.318 30.9184 53.3168 30.9186 53.3155 30.9186C53.3139 30.9189 53.3125 30.9195 53.3111 30.92L53.3075 30.9212C53.3063 30.9215 53.3051 30.9217 53.3037 30.9217C53.3022 30.9221 53.3007 30.9226 53.2993 30.9232L53.2956 30.9244C53.2944 30.9247 53.2932 30.9249 53.2919 30.9249L53.2802 30.9281L53.2684 30.9312L53.2651 30.9323L53.2626 30.9333L53.2625 30.9333C53.2606 30.9341 53.2588 30.9349 53.2566 30.9354L53.2538 30.9363L53.2507 30.9375C53.2496 30.938 53.2485 30.9385 53.2473 30.9389C53.2465 30.9392 53.2457 30.9394 53.2448 30.9397C53.2421 30.9403 53.2395 30.9414 53.237 30.9424L53.2331 30.9439C53.1742 30.9681 53.1153 30.9924 53.0564 31.0156L53.056 31.0157C52.9972 31.0389 52.9385 31.0621 52.8797 31.0842C52.8219 31.1063 52.763 31.1285 52.7041 31.1496L52.667 31.1629C52.6208 31.1795 52.575 31.196 52.5285 31.2118C52.4707 31.2318 52.4118 31.2519 52.354 31.2709L52.3104 31.285L52.3098 31.2851C52.2661 31.2993 52.2228 31.3133 52.1795 31.3268C52.1217 31.3447 52.064 31.3615 52.0062 31.3784L52.006 31.3784C51.9482 31.3953 51.8904 31.4111 51.8326 31.427C51.7747 31.4428 51.718 31.4575 51.6602 31.4723C51.6128 31.4846 51.5646 31.4962 51.517 31.5077L51.517 31.5077L51.5169 31.5077L51.4889 31.5145C51.4321 31.5282 51.3754 31.5409 51.3186 31.5535L51.1484 31.5883L51.0877 31.5999L51.0875 31.5999C51.0512 31.6069 51.015 31.6139 50.9792 31.62C50.9225 31.6305 50.8668 31.64 50.8111 31.6485C50.7554 31.658 50.6997 31.6664 50.6441 31.6738L50.6266 31.6761C50.5769 31.6827 50.5279 31.6892 50.4781 31.6949C50.3154 31.7139 50.1526 31.7286 49.992 31.7392C49.8314 31.7497 49.6708 31.756 49.5123 31.7582C49.3539 31.7603 49.1954 31.7582 49.0391 31.7518C48.8827 31.7455 48.7275 31.735 48.5733 31.7202C48.4191 31.7065 48.266 31.6875 48.114 31.6643C47.9619 31.6411 47.8109 31.6147 47.6621 31.5831C47.5133 31.5525 47.3655 31.5166 47.2188 31.4776C47.0722 31.4375 46.9265 31.3943 46.7831 31.3468C46.6396 31.2993 46.4972 31.2476 46.3569 31.1917C46.2167 31.1358 46.0775 31.0768 45.9393 31.0124C45.8023 30.9491 45.6652 30.8806 45.5314 30.8089C45.3976 30.7371 45.2648 30.6612 45.1331 30.581C45.0014 30.5009 44.8718 30.4165 44.7444 30.3289C44.617 30.2403 44.4907 30.1486 44.3664 30.0526C44.2422 29.9566 44.1202 29.8564 43.9992 29.753C43.8782 29.6486 43.7594 29.541 43.6426 29.4292C43.4842 29.2773 43.33 29.1191 43.1812 28.9556C43.0323 28.7911 42.8889 28.6223 42.7507 28.4472C42.6126 28.2721 42.4798 28.0918 42.3524 27.9061C42.225 27.7205 42.103 27.5296 41.9862 27.3344C41.8695 27.1393 41.7582 26.9389 41.6522 26.7332C41.5462 26.5275 41.4455 26.3176 41.3513 26.1035C41.2571 25.8894 41.1682 25.67 41.0847 25.4475C41.0023 25.2238 40.9241 24.9971 40.8524 24.7661C40.7806 24.5351 40.7142 24.2999 40.6543 24.0615C40.5943 23.8231 40.5397 23.5805 40.4915 23.3347C40.4433 23.089 40.4005 22.839 40.3641 22.5869C40.3266 22.3338 40.2967 22.0785 40.272 21.8201C40.2474 21.5606 40.2281 21.3001 40.2164 21.0353C40.2046 20.7706 40.1981 20.5037 40.1981 20.2348C40.1981 19.9647 40.2046 19.6937 40.2174 19.4194C40.2303 19.1462 40.2485 18.8699 40.2742 18.5914C40.3213 18.0756 40.3898 17.5651 40.4787 17.0599C40.5665 16.5547 40.6746 16.0558 40.802 15.5642C40.9294 15.0727 41.0751 14.5896 41.2378 14.1139C41.4006 13.6382 41.5804 13.172 41.7775 12.7163C41.9745 12.2607 42.1865 11.8156 42.4145 11.381C42.6415 10.9464 42.8846 10.5245 43.1405 10.1153C43.3964 9.70603 43.6662 9.30943 43.9489 8.9276C44.2315 8.54578 44.526 8.17872 44.8322 7.82748C45.1384 7.47624 45.4554 7.14082 45.783 6.82228C46.1107 6.50479 46.4479 6.20418 46.7938 5.9215C47.1396 5.63882 47.494 5.37619 47.857 5.13253C48.22 4.88994 48.5894 4.66632 48.9663 4.46486C49.3421 4.2634 49.7254 4.08304 50.113 3.92587C50.5006 3.76766 50.8935 3.6337 51.2908 3.52401C51.688 3.41431 52.0885 3.32887 52.4921 3.26875C52.8958 3.20863 53.3016 3.17488 53.7095 3.16749L53.7181 3.16749L53.7267 3.16749L53.7352 3.16749L53.7438 3.16749L53.7524 3.16749L53.7609 3.16749L53.7695 3.16749L53.7781 3.16749L53.7866 3.16749L53.7952 3.16749L53.8038 3.16749L53.8123 3.16749L53.8209 3.16749L53.8295 3.16749L53.8466 3.16749C53.9954 3.16749 54.1442 3.17171 54.292 3.1791C54.4387 3.18753 54.5854 3.19808 54.731 3.21285C54.8766 3.22762 55.0201 3.24555 55.1636 3.2677C55.306 3.28985 55.4484 3.31516 55.5886 3.3447C55.7289 3.37423 55.8681 3.40693 56.0062 3.44384C56.1443 3.48076 56.2814 3.52084 56.4163 3.56409C56.5523 3.60733 56.6861 3.6548 56.8189 3.70543C56.9517 3.75606 57.0834 3.80985 57.2129 3.86786C57.3436 3.92482 57.472 3.98705 57.5984 4.05139C57.7247 4.11573 57.8511 4.18429 57.9742 4.25602C58.0973 4.32774 58.2194 4.40263 58.3404 4.48174C58.4603 4.56085 58.5792 4.64312 58.6969 4.72856C58.8147 4.81399 58.9304 4.90259 59.0438 4.99541C59.1573 5.08823 59.2698 5.18422 59.3801 5.28337C59.4903 5.38252 59.5985 5.48588 59.7056 5.59136C59.8126 5.69789 59.9176 5.80654 60.0203 5.9194C60.1692 6.08183 60.3127 6.24954 60.4508 6.42252C60.5889 6.59551 60.7227 6.77376 60.8501 6.95729C60.9776 7.14082 61.1007 7.32857 61.2174 7.5216C61.3341 7.71462 61.4455 7.91292 61.5525 8.11438C61.6596 8.31584 61.7603 8.52257 61.8556 8.73353C61.9508 8.94448 62.0408 9.15966 62.1254 9.37799C62.21 9.59633 62.2892 9.81889 62.362 10.0457C62.4359 10.2724 62.5033 10.5034 62.5654 10.7365C62.6275 10.9696 62.6843 11.207 62.7346 11.4475C62.786 11.6869 62.831 11.9305 62.8695 12.1774C62.9081 12.4242 62.9413 12.6731 62.9691 12.9252C62.9969 13.1773 63.0184 13.4315 63.0333 13.6889C63.0494 13.9452 63.059 14.2057 63.0623 14.4673C63.0655 14.7289 63.0633 14.9936 63.0548 15.2594C63.0462 15.5252 63.0312 15.7931 63.0109 16.0631C62.9905 16.3332 62.9637 16.6042 62.9306 16.8774C62.9295 16.8911 62.9166 16.9829 62.892 17.1485C62.8674 17.313 62.8288 17.5514 62.7753 17.8552C62.7218 18.159 62.6532 18.5303 62.5654 18.9606C62.4787 19.391 62.3727 19.8814 62.2464 20.4267C62.12 20.9721 61.9723 21.5701 61.802 22.2167C61.6318 22.8633 61.438 23.5573 61.2174 24.2925C60.9968 25.0277 60.7516 25.804 60.4765 26.6161C60.2024 27.4283 59.8983 28.2753 59.5642 29.1508C59.2302 30.0262 58.864 30.9312 58.4646 31.8584C58.0652 32.7855 57.6316 33.7359 57.1615 34.702C56.6915 35.6682 56.185 36.6512 55.64 37.6438C55.094 38.6363 54.5104 39.6394 53.8841 40.6457C53.2577 41.6519 52.5906 42.6624 51.8786 43.6708C51.1666 44.6781 50.4096 45.6843 49.6076 46.6811C48.8056 47.6778 47.9555 48.6662 47.0561 49.6397C46.1567 50.6133 45.208 51.571 44.2069 52.5087C44.4039 52.2091 44.6116 51.8927 44.8269 51.5594C45.0421 51.2271 45.2648 50.878 45.4939 50.5152C45.723 50.1513 45.9575 49.7747 46.1974 49.3845C46.4361 48.9952 46.6803 48.5923 46.9265 48.1789C47.1728 47.7654 47.4223 47.3403 47.6718 46.9068C47.9212 46.4733 48.1718 46.0303 48.4213 45.5799C48.6707 45.1295 48.9191 44.6707 49.1654 44.2066C49.4106 43.7425 49.6547 43.2721 49.8935 42.7974C50.1323 42.3228 50.3678 41.8439 50.5959 41.3629C50.825 40.8819 51.0477 40.3978 51.2619 39.9126C51.4771 39.4274 51.6837 38.9412 51.8807 38.456C52.0778 37.9708 52.2651 37.4856 52.4418 37.0035C52.6174 36.5205 52.7823 36.0405 52.9343 35.5648C53.0864 35.0891 53.2245 34.6166 53.3487 34.1504C53.4729 33.6842 53.5821 33.2232 53.6742 32.7697C53.7663 32.3161 53.8423 31.87 53.9001 31.4333L53.9014 31.4227L53.9014 31.4227C53.902 31.4182 53.9026 31.4138 53.903 31.4094C53.9032 31.4068 53.9033 31.4042 53.9033 31.4016L53.9033 31.37C53.9033 31.3637 53.9029 31.3569 53.9025 31.3499C53.9024 31.3464 53.9023 31.3429 53.9023 31.3394L53.8991 31.3088C53.8981 31.2998 53.8964 31.2916 53.8946 31.2829L53.8946 31.2828L53.8946 31.2828L53.8937 31.2782L53.8927 31.2739C53.8916 31.2689 53.8905 31.2637 53.8891 31.2587C53.8883 31.2553 53.8873 31.2519 53.8862 31.2487C53.883 31.2382 53.8798 31.2287 53.8766 31.2192C53.8734 31.2097 53.8701 31.2002 53.8659 31.1907L53.8615 31.1812L53.8563 31.1704L53.853 31.1633L53.847 31.152C53.8441 31.1464 53.8412 31.1409 53.838 31.1358C53.8349 31.1289 53.8307 31.1226 53.8265 31.1164L53.822 31.1095C53.8166 31.101 53.8102 31.0926 53.8038 31.0842C53.7981 31.0767 53.7916 31.0693 53.7857 31.0625L53.7834 31.0599C53.777 31.0525 53.7695 31.0451 53.762 31.0377C53.7545 31.0304 53.7459 31.024 53.7384 31.0167C53.7309 31.0093 53.7224 31.0029 53.7138 30.9966C53.7124 30.9955 53.7109 30.9944 53.7094 30.9933C53.7082 30.9925 53.707 30.9916 53.7058 30.9908L53.7057 30.9908C53.7031 30.9889 53.7004 30.9871 53.6978 30.985L53.6923 30.9815C53.6887 30.9791 53.6852 30.9765 53.6817 30.9745C53.6778 30.9714 53.6733 30.9688 53.669 30.9665L53.6646 30.9639L53.6581 30.9603L53.656 30.9592C53.653 30.9576 53.6501 30.956 53.6474 30.9544C53.6448 30.9528 53.6418 30.9515 53.6389 30.9502C53.6359 30.9489 53.633 30.9476 53.6303 30.946C53.6287 30.9452 53.6271 30.9444 53.6255 30.9436C53.6211 30.9413 53.6169 30.9391 53.6121 30.9375L53.6075 30.9354C53.603 30.9333 53.5987 30.9317 53.5939 30.9302L53.5848 30.927L53.5757 30.9238C53.5727 30.9227 53.5694 30.9218 53.5659 30.9209L53.5638 30.9204L53.5575 30.9186C53.5546 30.9174 53.5513 30.9162 53.5479 30.9153C53.5451 30.9145 53.5422 30.9138 53.5393 30.9133C53.5361 30.9128 53.5329 30.912 53.5297 30.9112C53.5264 30.9104 53.5232 30.9096 53.52 30.9091L53.5136 30.9078C53.5093 30.9068 53.505 30.9059 53.5007 30.9059L53.4943 30.9046C53.49 30.9037 53.4858 30.9027 53.4815 30.9027L53.4754 30.902L53.4718 30.9017C53.47 30.9015 53.4681 30.9014 53.4662 30.9012C53.4649 30.901 53.4635 30.9008 53.4622 30.9006C53.4586 30.9 53.4551 30.8998 53.4515 30.8997L53.4429 30.8996ZM22.8103 34.4805L22.791 34.4805L22.7867 34.4848L22.776 34.4848L22.7653 34.4848L22.7546 34.4848L22.7439 34.4848C22.7407 34.4858 22.7364 34.4858 22.7332 34.4858C22.7322 34.4861 22.7311 34.4864 22.7299 34.4865C22.7282 34.4868 22.7265 34.4868 22.7248 34.4869C22.724 34.4869 22.7232 34.4869 22.7225 34.4869L22.7174 34.4883C22.7165 34.4884 22.7157 34.4886 22.7149 34.4887C22.7138 34.4889 22.7127 34.489 22.7118 34.489C22.7086 34.49 22.7043 34.4911 22.7011 34.4911C22.6979 34.4921 22.6936 34.4932 22.6904 34.4932L22.688 34.4935L22.6848 34.4943L22.683 34.4948C22.6818 34.4951 22.6807 34.4953 22.6797 34.4953C22.6765 34.4964 22.6722 34.4985 22.669 34.4985L22.6661 34.4995C22.6635 34.5005 22.6606 34.5016 22.6583 34.5016L22.6529 34.5032L22.6475 34.5048L22.6422 34.5064L22.6368 34.508C22.6348 34.5093 22.6323 34.5102 22.6299 34.511L22.6261 34.5122L22.6208 34.5143L22.6154 34.5164L22.5076 34.5574L22.3991 34.5987C22.3263 34.6261 22.2546 34.6525 22.1829 34.6778L22.1827 34.6778L22.1826 34.6779L22.1824 34.6779C22.1108 34.7032 22.0392 34.7285 21.9676 34.7527L21.9674 34.7528L21.9671 34.7528C21.8956 34.777 21.824 34.8012 21.7524 34.8244C21.6807 34.8476 21.609 34.8697 21.5372 34.8919C21.4655 34.914 21.3948 34.9351 21.3231 34.9562L21.1089 35.0164C21.0383 35.0364 20.9665 35.0554 20.8959 35.0733L20.8523 35.0842C20.7954 35.0985 20.7391 35.1126 20.6828 35.1261C20.6121 35.1429 20.5404 35.1598 20.4708 35.1756C20.4012 35.1915 20.3305 35.2062 20.2598 35.221C20.2009 35.2333 20.1419 35.2449 20.0835 35.2564L20.0835 35.2564L20.0489 35.2632C19.9793 35.2769 19.9087 35.2895 19.8391 35.3012L19.839 35.3012L19.839 35.3012C19.7694 35.3128 19.6998 35.3244 19.6303 35.3349L19.6059 35.3386C19.5446 35.3479 19.484 35.3571 19.4225 35.3655C19.361 35.374 19.2986 35.3817 19.2369 35.3893L19.2367 35.3893L19.2364 35.3893L19.2159 35.3919C18.9964 35.4172 18.778 35.4372 18.5606 35.4509C18.3433 35.4646 18.1259 35.4731 17.9107 35.4762C17.6955 35.4794 17.4803 35.4773 17.2672 35.4689C17.053 35.4604 16.841 35.4467 16.6301 35.4277C16.4192 35.4087 16.2093 35.3834 16.0016 35.3539C15.7939 35.3233 15.5872 35.2885 15.3817 35.2474C15.1761 35.2062 14.9726 35.1598 14.7713 35.1081C14.5701 35.0564 14.3698 34.9995 14.1717 34.9373C13.9737 34.875 13.7777 34.8075 13.5839 34.7347C13.3901 34.662 13.1974 34.5839 13.0079 34.5006C12.8184 34.4173 12.631 34.3286 12.4458 34.2348C12.2605 34.1409 12.0774 34.0428 11.8975 33.9384C11.7177 33.834 11.5399 33.7243 11.3643 33.6103C11.1898 33.4954 11.0163 33.3762 10.8472 33.2517C10.678 33.1273 10.511 32.9986 10.3471 32.8636C10.1833 32.7286 10.0216 32.5893 9.86425 32.4448C9.67902 32.275 9.50021 32.101 9.32675 31.9206C9.1533 31.7402 8.98519 31.5546 8.82244 31.3637C8.66077 31.1728 8.50444 30.9766 8.3524 30.7751C8.20036 30.5737 8.05474 30.3669 7.91555 30.156C7.77635 29.945 7.64251 29.7288 7.51403 29.5083C7.38661 29.2879 7.26455 29.0622 7.14784 28.8333C7.03113 28.6044 6.92085 28.3702 6.81699 28.1329C6.71206 27.8956 6.61463 27.654 6.52254 27.4083C6.43046 27.1636 6.3448 26.9136 6.26557 26.6615C6.18634 26.4084 6.11246 26.1531 6.04607 25.8936C5.97969 25.6342 5.91866 25.3726 5.86512 25.1068C5.81052 24.841 5.76341 24.5731 5.72272 24.302C5.68203 24.0309 5.64777 23.7577 5.61993 23.4814C5.59209 23.205 5.57068 22.9266 5.55676 22.646C5.54177 22.3654 5.53427 22.0827 5.53427 21.7979C5.53427 21.5132 5.5407 21.2263 5.55355 20.9383C5.58138 20.3613 5.63599 19.7897 5.71522 19.2254C5.79446 18.66 5.89939 18.102 6.02787 17.5525C6.15636 17.0029 6.30947 16.4619 6.484 15.9302C6.65853 15.3986 6.85554 14.8776 7.07396 14.3671C7.29132 13.8566 7.53116 13.3587 7.7892 12.8725C8.04832 12.3862 8.3267 11.9137 8.62222 11.4559C8.91881 10.9981 9.23253 10.5541 9.56338 10.1269C9.89316 9.69971 10.2411 9.28835 10.6031 8.89492C10.965 8.50149 11.3429 8.12599 11.7337 7.76947C12.1256 7.41296 12.5303 7.07649 12.9469 6.76006C13.3634 6.44363 13.7927 6.14934 14.2328 5.87616C14.6718 5.60403 15.1226 5.35299 15.583 5.12727C16.0434 4.90155 16.5123 4.69903 16.9899 4.52288C17.4674 4.34568 17.9525 4.19485 18.4439 4.07144C18.9354 3.94803 19.4333 3.851 19.9365 3.78349C20.4387 3.71598 20.9462 3.67696 21.458 3.66852C21.6646 3.66536 21.8702 3.66747 22.0747 3.67379C22.2792 3.68012 22.4827 3.69278 22.685 3.70966C22.8874 3.72653 23.0887 3.74868 23.2878 3.77611C23.487 3.80353 23.6851 3.83517 23.8821 3.87315C24.0791 3.91112 24.274 3.95331 24.4678 4.00077C24.6616 4.04824 24.8532 4.10098 25.0438 4.15794C25.2344 4.21595 25.4229 4.27818 25.6092 4.34463C25.7955 4.41214 25.9807 4.48386 26.1627 4.5598C26.3458 4.6368 26.5257 4.71802 26.7045 4.80346C26.8822 4.88995 27.0589 4.98066 27.2324 5.07559C27.4058 5.17052 27.5771 5.27072 27.7463 5.37514C27.9155 5.47957 28.0814 5.58821 28.2453 5.70212C28.4091 5.81498 28.5708 5.93312 28.7292 6.05547C28.8877 6.17783 29.043 6.3044 29.1961 6.43519C29.3492 6.56598 29.4991 6.70099 29.6458 6.84128C29.7925 6.98156 29.937 7.12501 30.0773 7.27373C30.2475 7.45305 30.4135 7.63869 30.573 7.82854C30.7325 8.0184 30.8867 8.21354 31.0356 8.41394C31.1844 8.61435 31.3279 8.81898 31.4649 9.02782C31.602 9.23772 31.7337 9.45078 31.86 9.66912C31.9863 9.88746 32.1063 10.11 32.2208 10.3357C32.3354 10.5615 32.4435 10.7925 32.5474 11.0256C32.6513 11.2587 32.7476 11.497 32.8386 11.7375C32.9297 11.9791 33.0142 12.2227 33.0935 12.4706C33.1727 12.7185 33.2455 12.9695 33.3119 13.2227C33.3783 13.4758 33.4382 13.7332 33.4928 13.9916C33.5475 14.25 33.5956 14.5126 33.6374 14.7763C33.6792 15.0411 33.7145 15.3069 33.7434 15.5758C33.7723 15.8448 33.7948 16.1159 33.8109 16.388C33.8269 16.6602 33.8366 16.9344 33.8398 17.2107C33.843 17.486 33.8398 17.7645 33.8291 18.043C33.8194 18.3225 33.8023 18.602 33.7787 18.8836C33.778 18.8887 33.7764 18.9045 33.7736 18.9306L33.7736 18.9307L33.7735 18.9314C33.7684 18.9808 33.7595 19.0667 33.7455 19.1874C33.7231 19.373 33.6888 19.6399 33.6395 19.9816C33.5903 20.3234 33.5239 20.739 33.4393 21.2231C33.3547 21.7072 33.2498 22.2589 33.1224 22.8707C32.995 23.4824 32.844 24.1554 32.6663 24.8811C32.4885 25.6067 32.284 26.3862 32.0484 27.2121C31.8129 28.038 31.5474 28.9113 31.2476 29.8227C30.9478 30.734 30.6137 31.6854 30.2421 32.6695C29.8695 33.6536 29.4605 34.6693 29.0087 35.7115C28.5568 36.7525 28.0643 37.82 27.5257 38.9053C26.9882 39.9907 26.4047 41.095 25.7719 42.2099C25.1391 43.3248 24.4581 44.4513 23.7236 45.582C22.9891 46.7127 22.2021 47.8477 21.3595 48.9805C20.5168 50.1123 19.6174 51.2419 18.6581 52.3621C17.6987 53.4823 16.6794 54.5919 15.5969 55.6857C14.5144 56.7795 13.3676 57.8564 12.1534 58.9091C12.3751 58.5874 12.6085 58.2446 12.8537 57.8817C13.0989 57.5178 13.3537 57.1349 13.6171 56.7341C13.8805 56.3333 14.1525 55.9135 14.4298 55.4789C14.7082 55.0444 14.9919 54.594 15.2789 54.1288C15.5658 53.6637 15.8571 53.1859 16.1494 52.6954C16.4417 52.2049 16.735 51.7029 17.0284 51.1913C17.3207 50.6797 17.613 50.1587 17.9021 49.6292C18.1902 49.0997 18.476 48.5628 18.7566 48.0207C19.0371 47.4785 19.3112 46.9311 19.5789 46.3794C19.8465 45.8278 20.1067 45.273 20.3551 44.7171C20.6035 44.1612 20.8434 43.6033 21.0704 43.0463C21.2974 42.4894 21.5126 41.9325 21.7128 41.3787C21.913 40.825 22.0983 40.2744 22.2674 39.728C22.4355 39.1817 22.5876 38.6406 22.7204 38.1058C22.8531 37.571 22.9666 37.0436 23.0587 36.5247C23.1508 36.0057 23.2215 35.4952 23.2686 34.9963C23.2707 34.9858 23.2707 34.9763 23.2707 34.9657L23.2707 34.9351C23.2707 34.9297 23.2701 34.9243 23.2696 34.919C23.2691 34.914 23.2686 34.9092 23.2686 34.9046L23.2683 34.902C23.2673 34.8932 23.2662 34.8837 23.2643 34.875C23.2621 34.8645 23.26 34.855 23.2579 34.8455C23.2557 34.836 23.2536 34.8265 23.2504 34.817L23.2407 34.7885L23.2348 34.7748L23.2289 34.7611C23.2268 34.7569 23.2247 34.7524 23.2225 34.7479C23.2204 34.7434 23.2182 34.739 23.2161 34.7347C23.2136 34.7292 23.2107 34.724 23.2077 34.719L23.2011 34.7084C23.1992 34.7045 23.1968 34.7007 23.1942 34.6969C23.1931 34.6951 23.1919 34.6933 23.1906 34.6915L23.185 34.6831C23.1824 34.6788 23.1792 34.6749 23.1759 34.6709C23.1727 34.667 23.1695 34.663 23.1668 34.6588C23.1629 34.6525 23.1577 34.6468 23.1527 34.6413L23.1476 34.6356C23.1445 34.6326 23.1417 34.6294 23.1389 34.6263L23.1388 34.6263C23.1347 34.6217 23.1306 34.6172 23.1262 34.6134C23.1238 34.6115 23.1215 34.6094 23.1192 34.6073C23.1178 34.606 23.1163 34.6047 23.1149 34.6034C23.1112 34.6 23.1074 34.5966 23.1037 34.5934C23.0994 34.5902 23.0954 34.5871 23.0914 34.5839C23.0873 34.5807 23.0833 34.5776 23.079 34.5744C23.0737 34.5702 23.0683 34.566 23.063 34.5628C23.0605 34.5613 23.058 34.5596 23.0555 34.5579L23.0517 34.5553L23.0469 34.5523C23.0405 34.5491 23.0351 34.5459 23.0298 34.5428C23.0244 34.5396 23.018 34.5364 23.0127 34.5333L23.0092 34.5314L23.0041 34.5291C23.0011 34.5277 22.9982 34.5264 22.9955 34.5248C22.9934 34.524 22.9913 34.523 22.9892 34.522L22.9891 34.5219L22.989 34.5219C22.9857 34.5203 22.9822 34.5187 22.9784 34.5175C22.9744 34.5155 22.9708 34.5139 22.9671 34.5125C22.9649 34.5117 22.9626 34.5109 22.9602 34.5101L22.9511 34.5069L22.942 34.5037C22.9388 34.5027 22.9358 34.5019 22.9329 34.5011C22.9299 34.5003 22.927 34.4995 22.9238 34.4985C22.9206 34.4972 22.917 34.4959 22.9132 34.4949C22.9107 34.4942 22.9082 34.4936 22.9056 34.4932C22.9002 34.4911 22.8938 34.49 22.8874 34.489L22.881 34.4877C22.8767 34.4867 22.8724 34.4858 22.8681 34.4858C22.8649 34.4858 22.8617 34.4853 22.8585 34.4848C22.8553 34.4842 22.8521 34.4837 22.8488 34.4837C22.8461 34.4832 22.8433 34.4828 22.8405 34.4824C22.8369 34.4819 22.8332 34.4816 22.8296 34.4816C22.8251 34.4809 22.8207 34.4806 22.8163 34.4806C22.8143 34.4805 22.8123 34.4805 22.8103 34.4805Z" fill="#0080FF"/>
</svg>
