<svg width="32" height="32" viewBox="0 0 32 32" fill="none" xmlns="http://www.w3.org/2000/svg">
<path d="M10.6672 10.6666L11.349 11.3981L11.8967 10.8877L11.5612 10.2185L10.6672 10.6666ZM6.65698 2.66664L7.55094 2.2185C7.415 1.9473 7.16328 1.75248 6.86665 1.68886C6.57002 1.62525 6.26056 1.69974 6.02536 1.89137L6.65698 2.66664ZM21.3335 21.3334L21.7816 20.4394L21.1124 20.104L20.602 20.6516L21.3335 21.3334ZM29.3335 25.3437L30.1088 25.9753C30.3004 25.7401 30.3749 25.4306 30.3113 25.134C30.2477 24.8374 30.0528 24.5857 29.7816 24.4497L29.3335 25.3437ZM1.80414 10.2925C2.19302 12.2195 2.84098 14.1212 4.16034 16.4208L5.8951 15.4256C4.68538 13.317 4.11212 11.6188 3.76469 9.89716L1.80414 10.2925ZM5.70956 16.6546L11.349 11.3981L9.98538 9.93513L4.34589 15.1917L5.70956 16.6546ZM11.5612 10.2185L7.55094 2.2185L5.76301 3.11477L9.77324 11.1148L11.5612 10.2185ZM6.02536 1.89137C4.00914 3.534 0.982674 6.21466 1.80414 10.2925L3.76469 9.89716C3.20493 7.11852 5.17633 5.16281 7.28861 3.4419L6.02536 1.89137ZM4.16034 16.4208C5.48825 18.7353 7.18958 20.9266 9.13273 22.8684L10.5469 21.4541C8.7203 19.6288 7.12916 17.5765 5.8951 15.4256L4.16034 16.4208ZM22.1029 28.236C20.3813 27.8885 18.6832 27.3153 16.5747 26.1056L15.5793 27.8404C17.8789 29.1597 19.7803 29.8076 21.7073 30.1965L22.1029 28.236ZM16.8085 27.6548L22.0651 22.0153L20.602 20.6516L15.3455 26.2912L16.8085 27.6548ZM20.8853 22.2274L28.8853 26.2377L29.7816 24.4497L21.7816 20.4394L20.8853 22.2274ZM28.5583 24.7121C26.8373 26.8244 24.8816 28.7957 22.1029 28.236L21.7073 30.1965C25.7851 31.018 28.4661 27.9916 30.1088 25.9753L28.5583 24.7121ZM16.5747 26.1056C14.4237 24.8716 12.3723 23.2808 10.5469 21.4541L9.13273 22.8684C11.0744 24.8114 13.2647 26.5124 15.5793 27.8404L16.5747 26.1056Z" fill="#05051A"/>
<path d="M18.666 4V7.73333M25.2663 6.73437L22.6264 9.37424M27.9993 13.3333H24.266" stroke="#05051A" stroke-width="3"/>
</svg>
