<svg width="32" height="32" viewBox="0 0 32 32" fill="none" xmlns="http://www.w3.org/2000/svg">
<path d="M8.66602 12.6666H2.66602V29.3333H8.66602V12.6666Z" stroke="#05051A" stroke-width="2" stroke-linejoin="round"/>
<path d="M8.66602 5.66663C8.66602 7.32348 7.32287 8.66663 5.66602 8.66663C4.00916 8.66663 2.66602 7.32348 2.66602 5.66663C2.66602 4.00977 4.00916 2.66663 5.66602 2.66663C7.32287 2.66663 8.66602 4.00977 8.66602 5.66663Z" stroke="#05051A" stroke-width="2" stroke-linejoin="round"/>
<path d="M18.6661 12.6666H12.666V29.3333H18.6661V21.0002C18.6661 19.7116 19.7107 18.6669 20.9993 18.6669C22.288 18.6669 23.3327 19.7116 23.3327 21.0002V29.3333H29.3309L29.3328 18.6669C29.3328 15.3533 26.1812 12.6669 23.0618 12.6669C21.2859 12.6669 19.7016 13.5374 18.6661 14.8986V12.6666Z" stroke="#05051A" stroke-width="2" stroke-linejoin="round"/>
</svg>
