<svg width="50" height="50" viewBox="0 0 50 50" fill="none" xmlns="http://www.w3.org/2000/svg">
<path d="M46.6301 12.5279L24.9311 0L17.8596 4.10938V12.7031L10.4415 8.42031L3.37012 12.5297V37.47L10.4146 41.5811L17.9323 37.2401V45.8917L25.0002 50L40.0353 41.2915L39.3002 40.0223L25.8014 47.841V25.485L45.1634 14.233V19.8717L30.7349 28.2904L30.7665 39.4137L45.1634 30.9958V36.6261L40.767 39.1725L41.5021 40.4417L46.6301 37.4715V29.2941L39.2717 25.0413L46.6301 20.7102V12.5279ZM44.4374 29.7212L32.204 36.8612V29.1314L37.7832 25.8753L44.4374 29.7212ZM10.4439 10.1153L25.0282 18.5356L34.6403 12.9495L28.3003 9.28916L27.5669 10.5594L31.7141 12.9536L25.0258 16.8405L19.3264 13.5499V5.80176L26.1002 9.7125L26.8336 8.44228L20.0562 4.52949L24.9335 1.69502L44.4398 12.957L25.0668 24.2155L5.56035 12.9534L10.4439 10.1153ZM19.354 28.2885L9.73359 22.7067V30.8656L11.1932 30.8698V25.2431L17.9323 29.134V35.5427L11.1932 39.4563V32.3366L9.73359 32.3324V39.4577L4.83682 36.6278V14.2294L24.3345 25.4864V47.922L19.3539 45.0464V28.2885H19.354Z" fill="white"/>
</svg>
