<svg width="50" height="50" viewBox="0 0 50 50" fill="none" xmlns="http://www.w3.org/2000/svg">
<path d="M46.667 12.5296L24.8964 0L19.2062 3.30674V5.90801L16.9606 4.61162L11.2693 7.91914V10.4989L9.02012 9.22627L3.33301 12.5313V37.4699L9.03652 40.7736L11.3055 39.4977V42.0828L17.0312 45.3887L19.2937 44.0739V46.6956L25.0357 50L40.0061 41.3286L39.2724 40.0618L25.7665 47.8851V25.4804L45.2031 14.1852V18.2673L29.243 27.4912V32.6242L45.2031 23.4003V27.4471L29.243 36.6709V41.8039L45.2031 32.58V36.6265L40.7362 39.2138L41.4699 40.4806L46.667 37.4703V30.8903L44.425 29.5875L46.667 28.2918V21.7105L44.425 20.4077L46.667 19.112V12.5296ZM20.6701 4.9958L34.4548 12.9544L32.9377 13.8359L20.6701 6.75322V4.9958ZM26.5179 17.5668L25.0008 18.4483L12.7332 11.3657V9.6082L26.5179 17.5668ZM9.77383 38.6795V22.8398L11.3055 23.7242V37.8182L9.77383 38.6795ZM17.762 43.2708V27.4519L19.2937 28.3361V42.3808L17.762 43.2708ZM20.7576 27.4909L16.2981 24.9163V43.2751L12.7695 41.2378V22.879L8.31006 20.3043V38.661L4.79687 36.6262V14.2203L12.9227 18.9117L13.6546 17.6439L5.52529 12.9505L9.02617 10.916L25.0032 20.1401L29.4385 17.5627L13.4616 8.33838L16.9631 6.30342L32.9401 15.5277L37.3754 12.9503L21.3985 3.72598L24.9 1.69111L44.4387 12.9361L25.0333 24.2134L15.1561 18.5107L14.4241 19.7785L24.3026 25.4817V47.8891L20.7577 45.849V27.4909H20.7576ZM44.4752 31.3099L30.7068 39.2671V37.5157L42.9641 30.4317L44.4752 31.3099ZM44.4752 22.1301L30.7068 30.0873V28.3359L42.9641 21.252L44.4752 22.1301Z" fill="white"/>
</svg>
