<svg width="50" height="50" viewBox="0 0 50 50" fill="none" xmlns="http://www.w3.org/2000/svg">
<path d="M48.308 13.5007L24.9997 0L1.69141 13.5014V20.3974L9.63799 25.0002L1.69141 29.6032V36.4993L24.9997 50L40.027 41.2954L39.2922 40.0269L25.7327 47.8812V43.5244L46.842 31.2969V35.6537L40.7581 39.1778L41.4929 40.4464L48.3079 36.4988V29.6027L40.3612 24.9999L48.3079 20.3968V13.5007H48.308ZM3.15742 15.1954L11.4385 19.992L12.1732 18.7234L3.88691 13.9238L24.9997 1.69414L46.1126 13.9232L24.9997 26.1528L13.6393 19.5726L12.9045 20.8411L24.2668 27.4225V31.7793L3.15742 19.5522V15.1954ZM33.6756 28.8726L35.6659 30.0255L31.5235 32.425L29.5332 31.2721L33.6756 28.8726ZM28.0707 32.1191L30.061 33.2721L24.9997 36.2039L19.938 33.2721L21.9285 32.1191L24.9997 33.898L28.0707 32.1191ZM20.4661 31.2721L18.4756 32.425L14.3329 30.0255L16.3235 28.8725L20.4661 31.2721ZM3.15742 31.2974L24.2667 43.5244V47.8812L3.15742 35.6542V31.2974ZM46.1126 30.0252L24.9997 42.2548L3.88682 30.0257L11.1004 25.8473L14.861 28.0255L11.4079 30.0256L24.9997 37.8981L38.5905 30.0255L35.1379 28.0255L38.8989 25.8469L46.1126 30.0252ZM25.7327 31.7793V27.4225L46.842 15.1949V19.5518L25.7327 31.7793Z" fill="white"/>
<path d="M38.5888 13.9233L24.9979 6.05078L11.4062 13.9234L24.9979 21.796L38.5888 13.9233ZM23.0075 18.9489L24.9979 17.7959L26.9884 18.9488L24.9979 20.1018L23.0075 18.9489ZM24.9979 14.2382L30.0594 17.17L28.4509 18.1018L24.9979 16.1018L21.545 18.1019L19.9362 17.17L24.9979 14.2382ZM31.5217 16.3229L25.731 12.9686V8.16963L35.6641 13.9233L31.5217 16.3229ZM24.2649 8.16953V12.9686L18.4738 16.3229L14.3312 13.9234L24.2649 8.16953Z" fill="white"/>
</svg>
