<svg width="50" height="50" viewBox="0 0 50 50" fill="none" xmlns="http://www.w3.org/2000/svg">
<g clip-path="url(#clip0_612_2213)">
<path d="M49.0022 16.3806L29.7505 5.26562L29.017 6.53613L46.8052 16.8062L41.4032 19.9454L15.2307 4.83467L20.6326 1.69541L27.5671 5.69893L28.3006 4.42842L20.6301 0L13.0337 4.41465V9.61035L8.59355 7.04688L0.99707 11.4615V20.2434L4.96289 22.533L0.99707 24.8377V33.6194L17.2976 43.0306L18.0311 41.7601L2.46416 32.7724V26.5302L28.6344 41.6396V47.8818L19.4981 42.607L18.7646 43.8775L29.3691 50L36.9655 45.5854V40.3896L41.4056 42.9531L49.0021 38.5385V29.7566L45.0362 27.467L49.0021 25.1623V16.3806H49.0022ZM14.5007 6.10723L40.6708 21.2166V27.4588L36.9655 25.3195V23.4275L14.5007 10.4574V6.10723ZM30.1015 34.5015V28.2622L35.4985 25.1257V31.365L30.1015 34.5015ZM8.59609 8.74229L34.7687 23.853L29.3667 26.9923L3.19404 11.8815L8.59609 8.74229ZM2.46416 13.1541L28.6344 28.2635V34.5057L2.46416 19.3963V13.1541ZM29.3691 36.6239L31.5375 35.3638L34.7686 37.2292L29.3666 40.3685L3.19404 25.2576L6.42754 23.3785L29.3691 36.6239ZM30.1015 47.8775V41.6383L35.4985 38.5018V44.7411L30.1015 47.8775ZM32.9998 34.514L36.7548 32.3318L40.6709 34.5928V40.835L36.9656 38.6957V36.8037L32.9998 34.514ZM42.1379 40.8307V34.5913L47.5351 31.4548V37.6942L42.1379 40.8307ZM46.8052 30.1822L41.4032 33.3215L36.9656 30.7595V27.0135L41.4057 29.577L43.5741 28.3168L46.8052 30.1822ZM42.1379 27.4546V21.2152L47.5351 18.0787V24.3181L42.1379 27.4546Z" fill="white"/>
<path d="M7.86133 11.0493H9.32842V12.5164H7.86133V11.0493Z" fill="white"/>
</g>
<defs>
<clipPath id="clip0_612_2213">
<rect width="50" height="50" fill="white"/>
</clipPath>
</defs>
</svg>
