<svg width="30" height="30" viewBox="0 0 30 30" fill="none" xmlns="http://www.w3.org/2000/svg">
<path d="M28.9846 8.10041L14.9996 0L1.01465 8.10082V12.2384L5.7826 15.0001L1.01465 17.7619V21.8996L14.9996 30L24.016 24.7772L23.5751 24.0161L15.4394 28.7287V26.1146L28.105 18.7781V21.3922L24.4547 23.5067L24.8955 24.2678L28.9846 21.8993V17.7616L24.2165 14.9999L28.9846 12.2381V8.10041H28.9846ZM1.89426 9.11725L6.86289 11.9952L7.30375 11.2341L2.33195 8.3543L14.9996 1.01648L27.6674 8.35395L14.9996 15.6917L8.18336 11.7435L7.7425 12.5047L14.5599 16.4535V19.0676L1.89426 11.7313V9.11725ZM20.2052 17.3235L21.3994 18.0153L18.9139 19.455L17.7197 18.7632L20.2052 17.3235ZM16.8422 19.2715L18.0364 19.9632L14.9996 21.7223L11.9626 19.9632L13.1569 19.2715L14.9996 20.3388L16.8422 19.2715ZM12.2795 18.7632L11.0852 19.455L8.59955 18.0153L9.79393 17.3235L12.2795 18.7632ZM1.89426 18.7784L14.5598 26.1146V28.7287L1.89426 21.3925V18.7784ZM27.6674 18.0151L14.9996 25.3529L2.33189 18.0154L6.66004 15.5084L8.91643 16.8153L6.84455 18.0154L14.9996 22.7389L23.1541 18.0153L21.0825 16.8153L23.3392 15.5081L27.6674 18.0151ZM15.4394 19.0676V16.4535L28.105 9.11695V11.7311L15.4394 19.0676Z" fill="#05051A"/>
<path d="M23.1542 8.35439L14.9997 3.63086L6.84473 8.35445L14.9997 13.078L23.1542 8.35439ZM13.8055 11.3697L14.9997 10.6779L16.194 11.3697L14.9997 12.0614L13.8055 11.3697ZM14.9997 8.5433L18.0366 10.3024L17.0715 10.8614L14.9997 9.66145L12.928 10.8615L11.9627 10.3024L14.9997 8.5433ZM18.914 9.7941L15.4396 7.78152V4.90217L21.3994 8.35439L18.914 9.7941ZM14.5599 4.90211V7.78152L11.0853 9.79416L8.59967 8.35445L14.5599 4.90211Z" fill="#05051A"/>
</svg>
