<svg width="30" height="30" viewBox="0 0 30 30" fill="none" xmlns="http://www.w3.org/2000/svg">
<g clip-path="url(#clip0_701_246)">
<path d="M27.9784 7.51676L14.959 0L10.7161 2.46563V7.62188L6.26529 5.05219L2.02246 7.51781V22.482L6.24912 24.9486L10.7598 22.3441V27.535L15.0005 30L24.0215 24.7749L23.5805 24.0134L15.4812 28.7046V15.291L27.0984 8.5398V11.923L18.4413 16.9743L18.4603 23.6482L27.0984 18.5975V21.9756L24.4606 23.5035L24.9016 24.265L27.9784 22.4829V17.5765L23.5634 15.0248L27.9784 12.4261V7.51676ZM26.6628 17.8327L19.3228 22.1167V17.4789L22.6703 15.5252L26.6628 17.8327ZM6.26676 6.0692L15.0173 11.1214L20.7846 7.76971L16.9806 5.5735L16.5405 6.33562L19.0288 7.77217L15.0159 10.1043L11.5962 8.12994V3.48105L15.6605 5.8275L16.1005 5.06537L12.0341 2.7177L14.9605 1.01701L26.6643 7.77422L15.0405 14.5293L3.3366 7.77205L6.26676 6.0692ZM11.6128 16.9731L5.84055 13.624V18.5194L6.71629 18.5219V15.1458L10.7598 17.4804V21.3256L6.71629 23.6737V19.402L5.84055 19.3995V23.6746L2.90248 21.9767V8.53764L14.6011 15.2919V28.7532L11.6127 27.0278V16.9731H11.6128Z" fill="#05051A"/>
</g>
<defs>
<clipPath id="clip0_701_246">
<rect width="30" height="30" fill="white"/>
</clipPath>
</defs>
</svg>
