<svg width="32" height="32" viewBox="0 0 32 32" fill="none" xmlns="http://www.w3.org/2000/svg">
<mask id="mask0_2001_8" style="mask-type:alpha" maskUnits="userSpaceOnUse" x="0" y="0" width="32" height="32">
<rect width="32" height="32" fill="#D9D9D9"/>
</mask>
<g mask="url(#mask0_2001_8)">
<path d="M2.54601 11.6355C2.54601 13.4535 2.51754 15.1617 2.56228 16.8699C2.57855 17.4921 2.37519 17.6345 1.78953 17.6426C1.20793 17.6508 0.980174 17.5165 0.992375 16.8983C1.03305 15.3162 0.984243 13.7341 1.02491 12.152C1.04525 11.4118 1.04525 10.7408 0 10.5699C0.935435 9.87039 1.8668 9.47181 2.74936 9.00002C6.99949 6.73058 11.2659 4.48554 15.516 2.20796C16.0244 1.93546 16.4311 1.92733 16.9354 2.20389C21.8851 4.89631 26.847 7.56841 31.8007 10.2527C31.8617 10.2852 31.9105 10.3422 32 10.4235C29.2547 12.0422 26.4037 13.3844 23.6421 14.8933C21.336 16.1541 19.0056 17.362 16.6955 18.6106C16.3782 18.7814 16.1139 18.879 15.7722 18.6919C13.1978 17.2847 10.6233 15.8897 8.04474 14.4866C7.9634 14.4418 7.89832 14.3727 7.74377 14.2547C10.1312 13.3478 12.4372 12.4774 14.7351 11.5867C15.0686 11.4566 15.3127 11.5501 15.6014 11.6721C16.2928 11.969 17.033 11.7087 17.2893 11.1068C17.5618 10.4723 17.273 9.66297 16.6873 9.3986C15.9878 9.08544 15.1947 9.37013 14.9222 10.1144C14.788 10.4845 14.5724 10.6065 14.243 10.7285C11.8109 11.6436 9.37875 12.5709 6.96289 13.5308C6.60498 13.6731 6.38536 13.5552 6.11693 13.421C4.96594 12.8312 3.86375 12.1439 2.54601 11.6355Z" fill="#FFD659"/>
<path d="M26.7051 14.3808C26.7051 16.8861 26.697 19.2288 26.7092 21.5714C26.7133 22.1124 26.392 21.8968 26.152 21.8439C24.0981 21.3884 22.093 21.5145 20.1693 22.3808C18.7784 23.0071 17.603 23.9426 16.6391 25.1261C16.3259 25.5084 16.1469 25.6589 15.7402 25.1749C13.1739 22.1164 9.92019 21.0265 6.02391 21.909C5.56839 22.0107 5.51959 21.848 5.52366 21.4657C5.54399 19.2979 5.56026 17.1302 5.53585 14.9665C5.52772 14.3849 5.70668 14.3808 6.12966 14.6126C8.59025 15.9466 11.059 17.2766 13.5237 18.6065C13.8165 18.7651 14.1541 18.8668 14.3981 19.0742C15.6548 20.1642 16.7977 19.8022 18.1032 19.0458C20.877 17.4352 23.7362 15.9792 26.7051 14.3808Z" fill="#FFD659"/>
<path d="M16.2888 28.3676C17.8628 26.395 19.9248 25.0529 22.5766 24.7153C24.0936 24.5242 25.57 24.6584 27.0301 25.1342C27.8313 25.3945 28.0428 26.0371 28.2543 26.8424C25.3382 25.8175 22.5115 25.545 19.7947 27.2085C21.5192 26.9441 23.2436 26.9929 24.964 27.2491C26.2289 27.4403 27.4531 27.7697 28.6529 28.209C29.206 28.4123 29.3971 28.7662 29.267 29.3437C26.9528 28.7336 24.6346 28.3025 22.235 28.453C20.2624 28.575 18.4363 29.1607 16.7037 30.0758C16.3946 30.2385 16.1424 30.3727 15.7886 30.1652C12.1323 28.0219 8.24818 28.152 4.29088 29.0183C3.89231 29.1037 3.4978 29.1932 3.09922 29.2786C3.07889 29.2827 3.05448 29.2705 2.97314 29.2501C2.93654 28.7214 3.13989 28.392 3.68082 28.2008C6.46679 27.2125 9.30563 26.7692 12.2502 27.241C12.3478 27.2573 12.4495 27.241 12.5512 27.18C9.82215 25.5369 6.97924 25.8907 4.07533 26.7936C4.25022 25.8053 4.80334 25.2644 5.72251 25.0204C9.26089 24.0768 12.3763 24.8251 15.0809 27.2898C15.4754 27.6436 15.8781 27.9975 16.2888 28.3676Z" fill="#FFD659"/>
<path d="M0.601905 21.1444C0.601905 20.7621 0.597838 20.3798 0.601905 19.9975C0.605972 19.2288 1.00455 18.8058 1.75696 18.7733C2.56632 18.7367 3.06657 19.1353 3.09097 19.8958C3.11944 20.7377 3.11944 21.5796 3.09504 22.4174C3.07064 23.2024 2.51751 23.7596 1.80983 23.7555C1.10622 23.7514 0.63851 23.2105 0.618175 22.3646C0.61004 21.9579 0.618175 21.5471 0.618175 21.1404C0.614108 21.1444 0.605972 21.1444 0.601905 21.1444Z" fill="#FFD659"/>
</g>
</svg>
