<svg width="140" height="211" viewBox="0 0 140 211" fill="none" xmlns="http://www.w3.org/2000/svg">
<mask id="mask0_622_9069" style="mask-type:alpha" maskUnits="userSpaceOnUse" x="0" y="0" width="140" height="211">
<rect width="140" height="211" fill="url(#paint0_linear_622_9069)"/>
</mask>
<g mask="url(#mask0_622_9069)">
<g clip-path="url(#clip0_622_9069)">
<path d="M34.8679 210.997C54.1138 210.997 69.7337 195.243 69.7337 175.831V140.664H34.8679C15.6219 140.664 0.00195312 156.419 0.00195312 175.831C0.00195312 195.243 15.6219 210.997 34.8679 210.997Z" fill="#0ACF83"/>
<path d="M0.00195312 105.503C0.00195312 86.0906 15.6219 70.3359 34.8679 70.3359H69.7337V140.669H34.8679C15.6219 140.669 0.00195312 124.915 0.00195312 105.503Z" fill="#A259FF"/>
<path d="M0.00195312 35.1667C0.00195312 15.7547 15.6219 0 34.8679 0H69.7337V70.3333H34.8679C15.6219 70.3333 0.00195312 54.5787 0.00195312 35.1667Z" fill="#F24E1E"/>
<path d="M69.7358 0H104.602C123.848 0 139.468 15.7547 139.468 35.1667C139.468 54.5787 123.848 70.3333 104.602 70.3333H69.7358V0Z" fill="#FF7262"/>
<path d="M139.468 105.497C139.468 124.909 123.848 140.663 104.602 140.663C85.3558 140.663 69.7358 124.909 69.7358 105.497C69.7358 86.0847 85.3558 70.3301 104.602 70.3301C123.848 70.3301 139.468 86.0847 139.468 105.497Z" fill="#1ABCFE"/>
</g>
</g>
<defs>
<linearGradient id="paint0_linear_622_9069" x1="70" y1="0" x2="70" y2="211" gradientUnits="userSpaceOnUse">
<stop stop-color="#D9D9D9"/>
<stop offset="1" stop-color="#D9D9D9" stop-opacity="0.1"/>
</linearGradient>
<clipPath id="clip0_622_9069">
<rect width="140" height="211" fill="white"/>
</clipPath>
</defs>
</svg>
