<svg width="50" height="50" viewBox="0 0 50 50" fill="none" xmlns="http://www.w3.org/2000/svg">
<path d="M46.6291 12.5279L24.9301 0L17.8586 4.10938V12.7031L10.4405 8.42031L3.36914 12.5297V37.47L10.4136 41.5811L17.9313 37.2401V45.8917L24.9992 50L40.0343 41.2915L39.2992 40.0223L25.8004 47.841V25.485L45.1624 14.233V19.8717L30.7339 28.2904L30.7655 39.4137L45.1624 30.9958V36.6261L40.766 39.1725L41.5011 40.4417L46.6291 37.4715V29.2941L39.2707 25.0413L46.6291 20.7102V12.5279ZM44.4364 29.7212L32.203 36.8612V29.1314L37.7822 25.8753L44.4364 29.7212ZM10.443 10.1153L25.0272 18.5356L34.6394 12.9495L28.2993 9.28916L27.5659 10.5594L31.7131 12.9536L25.0248 16.8405L19.3254 13.5499V5.80176L26.0992 9.7125L26.8326 8.44228L20.0553 4.52949L24.9325 1.69502L44.4389 12.957L25.0658 24.2155L5.55938 12.9534L10.443 10.1153ZM19.353 28.2885L9.73262 22.7067V30.8656L11.1922 30.8698V25.2431L17.9313 29.134V35.5427L11.1922 39.4563V32.3366L9.73262 32.3324V39.4577L4.83584 36.6278V14.2294L24.3335 25.4864V47.922L19.3529 45.0464V28.2885H19.353Z" fill="white"/>
</svg>
