<svg width="50" height="50" viewBox="0 0 50 50" fill="none" xmlns="http://www.w3.org/2000/svg">
<g clip-path="url(#clip0_646_7341)">
<path d="M49.0031 16.3806L29.7515 5.26562L29.018 6.53613L46.8062 16.8062L41.4042 19.9454L15.2316 4.83467L20.6336 1.69541L27.5681 5.69893L28.3016 4.42842L20.6311 0L13.0347 4.41465V9.61035L8.59453 7.04688L0.998047 11.4615V20.2434L4.96387 22.533L0.998047 24.8377V33.6194L17.2985 43.0306L18.032 41.7601L2.46514 32.7724V26.5302L28.6354 41.6396V47.8818L19.4991 42.607L18.7656 43.8775L29.3701 50L36.9665 45.5854V40.3896L41.4065 42.9531L49.003 38.5385V29.7566L45.0372 27.467L49.003 25.1623V16.3806H49.0031ZM14.5017 6.10723L40.6718 21.2166V27.4588L36.9665 25.3195V23.4275L14.5017 10.4574V6.10723ZM30.1024 34.5015V28.2622L35.4995 25.1257V31.365L30.1024 34.5015ZM8.59707 8.74229L34.7696 23.853L29.3677 26.9923L3.19502 11.8815L8.59707 8.74229ZM2.46514 13.1541L28.6354 28.2635V34.5057L2.46514 19.3963V13.1541ZM29.3701 36.6239L31.5385 35.3638L34.7695 37.2292L29.3676 40.3685L3.19502 25.2576L6.42852 23.3785L29.3701 36.6239ZM30.1024 47.8775V41.6383L35.4995 38.5018V44.7411L30.1024 47.8775ZM33.0008 34.514L36.7558 32.3318L40.6719 34.5928V40.835L36.9666 38.6957V36.8037L33.0008 34.514ZM42.1389 40.8307V34.5913L47.536 31.4548V37.6942L42.1389 40.8307ZM46.8062 30.1822L41.4042 33.3215L36.9666 30.7595V27.0135L41.4066 29.577L43.5751 28.3168L46.8062 30.1822ZM42.1389 27.4546V21.2152L47.536 18.0787V24.3181L42.1389 27.4546Z" fill="white"/>
<path d="M7.86328 11.0496H9.33037V12.5166H7.86328V11.0496Z" fill="white"/>
</g>
<defs>
<clipPath id="clip0_646_7341">
<rect width="50" height="50" fill="white"/>
</clipPath>
</defs>
</svg>
