<svg width="50" height="50" viewBox="0 0 50 50" fill="none" xmlns="http://www.w3.org/2000/svg">
<path d="M9.2832 22.0259V34.0453L19.7361 40.0803V28.0608L9.2832 22.0259ZM17.4923 28.459L10.75 32.3517V24.5663L17.4923 28.459ZM11.4834 33.6219L18.2694 29.7039V37.5397L11.4834 33.6219Z" fill="white"/>
<path d="M30.2637 40.0803L40.7166 34.0453V22.0259L30.2637 28.0608V40.0803ZM31.7304 29.704L38.5164 33.622L31.7304 37.5399V29.704ZM39.2498 32.3517L32.5075 28.459L39.2498 24.5663V32.3517Z" fill="white"/>
<path d="M24.9644 0L3.3418 12.5709V37.4696L24.9649 50L39.9999 41.3158L39.2663 40.0458L25.6989 47.8822V25.4813L45.1909 14.1587V36.6236L40.7331 39.1984L41.4667 40.4685L46.6577 37.4702V12.5302L24.9644 0ZM4.8085 14.2634L8.46445 16.375L9.19805 15.105L5.53779 12.9909L24.9667 1.69521L44.4017 12.9209L24.9645 24.2116L10.6647 15.9521L9.93115 17.2222L24.2321 25.4824V47.8801L4.8085 36.6243V14.2634Z" fill="white"/>
<path d="M35.3188 12.9532L24.9674 6.91748L14.4785 12.9532L24.9674 18.9889L35.3188 12.9532ZM25.6983 16.8649V9.0415L32.4069 12.9531L25.6983 16.8649ZM24.2315 9.03311V16.8733L17.4192 12.9532L24.2315 9.03311Z" fill="white"/>
</svg>
