<svg width="50" height="50" viewBox="0 0 50 50" fill="none" xmlns="http://www.w3.org/2000/svg">
<path d="M46.666 12.5296L24.8954 0L19.2052 3.30674V5.90801L16.9597 4.61162L11.2684 7.91914V10.4989L9.01914 9.22627L3.33203 12.5313V37.4699L9.03555 40.7736L11.3045 39.4977V42.0828L17.0303 45.3887L19.2927 44.0739V46.6956L25.0348 50L40.0051 41.3286L39.2714 40.0618L25.7655 47.8851V25.4804L45.2021 14.1852V18.2673L29.242 27.4912V32.6242L45.2021 23.4003V27.4471L29.242 36.6709V41.8039L45.2021 32.58V36.6265L40.7353 39.2138L41.4689 40.4806L46.666 37.4703V30.8903L44.424 29.5875L46.666 28.2918V21.7105L44.424 20.4077L46.666 19.112V12.5296ZM20.6691 4.9958L34.4538 12.9544L32.9367 13.8359L20.6691 6.75322V4.9958ZM26.5169 17.5668L24.9998 18.4483L12.7322 11.3657V9.6082L26.5169 17.5668ZM9.77285 38.6795V22.8398L11.3045 23.7242V37.8182L9.77285 38.6795ZM17.761 43.2708V27.4519L19.2927 28.3361V42.3808L17.761 43.2708ZM20.7566 27.4909L16.2972 24.9163V43.2751L12.7686 41.2378V22.879L8.30908 20.3043V38.661L4.7959 36.6262V14.2203L12.9217 18.9117L13.6536 17.6439L5.52432 12.9505L9.0252 10.916L25.0022 20.1401L29.4375 17.5627L13.4606 8.33838L16.9621 6.30342L32.9392 15.5277L37.3744 12.9503L21.3976 3.72598L24.899 1.69111L44.4377 12.9361L25.0323 24.2134L15.1551 18.5107L14.4231 19.7785L24.3017 25.4817V47.8891L20.7567 45.849V27.4909H20.7566ZM44.4742 31.3099L30.7059 39.2671V37.5157L42.9631 30.4317L44.4742 31.3099ZM44.4742 22.1301L30.7059 30.0873V28.3359L42.9631 21.252L44.4742 22.1301Z" fill="white"/>
</svg>
