<svg width="50" height="50" viewBox="0 0 50 50" fill="none" xmlns="http://www.w3.org/2000/svg">
<path d="M46.6309 26.4183V12.5051L39.9274 8.62979L31.7034 13.3843V3.87529L25 0L3.36914 12.5051V37.4953L24.9994 50L31.7229 46.1257V36.658L39.9286 41.37L46.6308 37.4953V27.8851H45.1659V36.6484L40.6792 39.2423V21.9803L30.2579 28.005V45.2775L25.7518 47.8741V25.4003L45.166 14.1976V26.4183H46.6309ZM33.2436 27.9728V29.4344L31.9495 28.7209L33.2436 27.9728ZM31.7229 30.2704L34.7083 31.9166V27.1259L39.2145 24.5208V39.2689L31.7229 34.9671V30.2704ZM39.9274 10.3234L44.4326 12.9279L25.0174 24.1312L20.5011 21.5541L39.9274 10.3234ZM24.2306 17.7044L18.2966 21.1349V30.531L16.7951 29.6682L16.7953 20.2221L24.2305 15.9237V17.7044H24.2306ZM16.0639 30.939L18.2967 32.222V37.5611L11.5375 33.6535L16.0639 30.939ZM29.5062 4.29873L17.3514 11.3255L18.0838 12.5957L30.2386 5.56895V14.231L25.6954 16.8574V13.3831L15.3306 19.3751L15.3304 29.6693L10.8051 32.2854V16.8038L16.5772 13.4669L15.8448 12.1967L10.0727 15.5336L5.56641 12.9284L25 1.69365L29.5062 4.29873ZM4.83398 14.1987L9.34014 16.8038V34.0771L19.7614 40.1018V22.8205L24.287 25.4028V47.8946L4.83398 36.6484V14.1987Z" fill="white"/>
</svg>
