<svg width="186" height="34" viewBox="0 0 186 34" fill="none" xmlns="http://www.w3.org/2000/svg">
<path d="M3.06194 11.5881C3.06194 13.7745 3.0277 15.8288 3.08151 17.8832C3.10107 18.6315 2.85651 18.8027 2.15216 18.8125C1.45271 18.8223 1.1788 18.6609 1.19347 17.9174C1.24239 16.0147 1.18369 14.112 1.23261 12.2093C1.25706 11.3191 1.25706 10.512 0 10.3066C1.12499 9.46527 2.2451 8.98592 3.3065 8.41853C8.41789 5.6892 13.5488 2.98921 18.6602 0.250097C19.2716 -0.0776191 19.7608 -0.0874005 20.3673 0.245206C26.32 3.48323 32.2873 6.6968 38.2449 9.92505C38.3183 9.96418 38.377 10.0327 38.4846 10.1305C35.183 12.0772 31.7542 13.6913 28.433 15.506C25.6597 17.0223 22.8569 18.475 20.0787 19.9766C19.6972 20.1821 19.3792 20.2994 18.9684 20.0744C15.8722 18.3821 12.776 16.7044 9.67495 15.0169C9.57713 14.9631 9.49886 14.8799 9.313 14.7381C12.1842 13.6473 14.9575 12.6006 17.7211 11.5294C18.1222 11.3729 18.4157 11.4854 18.7629 11.6321C19.5945 11.9892 20.4847 11.6761 20.7928 10.9522C21.1205 10.1892 20.7733 9.21581 20.0689 8.89788C19.2276 8.52125 18.2738 8.86364 17.9461 9.75874C17.7847 10.2038 17.5255 10.3506 17.1293 10.4973C14.2043 11.5979 11.2793 12.7131 8.37387 13.8674C7.94344 14.0386 7.67931 13.8968 7.35648 13.7354C5.97225 13.0261 4.64671 12.1995 3.06194 11.5881Z" fill="#FFD659"/>
<path d="M32.1166 14.8896C32.1166 17.9027 32.1068 20.7201 32.1215 23.5374C32.1264 24.188 31.74 23.9287 31.4514 23.8651C28.9813 23.3173 26.5699 23.4689 24.2563 24.5108C22.5835 25.264 21.1699 26.389 20.0107 27.8124C19.6341 28.2722 19.4189 28.4532 18.9297 27.8711C15.8433 24.1929 11.9303 22.882 7.24446 23.9434C6.69664 24.0657 6.63795 23.87 6.64284 23.4103C6.6673 20.8032 6.68686 18.1962 6.65751 15.594C6.64773 14.8945 6.86295 14.8896 7.37164 15.1684C10.3309 16.7728 13.2999 18.3722 16.264 19.9717C16.6162 20.1624 17.0221 20.2847 17.3156 20.5342C18.827 21.845 20.2015 21.4097 21.7716 20.4999C25.1074 18.563 28.546 16.8119 32.1166 14.8896Z" fill="#FFD659"/>
<path d="M19.5893 31.7108C21.4823 29.3386 23.9621 27.7244 27.1513 27.3185C28.9757 27.0886 30.7512 27.25 32.5072 27.8223C33.4708 28.1353 33.7251 28.9081 33.9795 29.8766C30.4724 28.644 27.073 28.3163 23.8056 30.3168C25.8795 29.9989 27.9534 30.0576 30.0224 30.3657C31.5436 30.5956 33.0159 30.9918 34.4588 31.5201C35.124 31.7646 35.3539 32.1902 35.1974 32.8847C32.4143 32.1511 29.6263 31.6326 26.7404 31.8136C24.3681 31.9603 22.1719 32.6646 20.0883 33.7652C19.7165 33.9608 19.4133 34.1222 18.9877 33.8728C14.5905 31.2951 9.91929 31.4516 5.16007 32.4934C4.68073 32.5962 4.20628 32.7038 3.72693 32.8065C3.70248 32.8114 3.67312 32.7967 3.5753 32.7722C3.53128 32.1364 3.77584 31.7402 4.42638 31.5103C7.77691 30.3217 11.191 29.7886 14.7323 30.3559C14.8497 30.3755 14.972 30.3559 15.0943 30.2826C11.8122 28.3065 8.39321 28.732 4.90084 29.8179C5.11116 28.6293 5.77638 27.9788 6.88181 27.6853C11.1372 26.5505 14.8839 27.4505 18.1366 30.4146C18.6111 30.8402 19.0953 31.2657 19.5893 31.7108Z" fill="#FFD659"/>
<path d="M0.72483 23.0238C0.72483 22.5641 0.719939 22.1043 0.72483 21.6445C0.729721 20.72 1.20907 20.2113 2.11395 20.1722C3.08732 20.1282 3.68894 20.6075 3.71829 21.5222C3.75253 22.5347 3.75253 23.5472 3.72318 24.5548C3.69383 25.4988 3.02862 26.1689 2.17754 26.164C1.33135 26.1591 0.768853 25.5086 0.744396 24.4912C0.734614 24.0021 0.744396 23.5081 0.744396 23.0189C0.739505 23.0238 0.729721 23.0238 0.72483 23.0238Z" fill="#FFD659"/>
<path d="M51.4144 27V24.54L60.4744 11.52H51.8644V7.68H66.8044V10.38L57.8344 23.28H66.9844V27H51.4144ZM76.7681 27.3C74.0281 27.3 72.0081 26.67 70.7081 25.41C69.4081 24.13 68.7581 22.29 68.7581 19.89C68.7581 17.51 69.4081 15.68 70.7081 14.4C72.0281 13.12 74.0481 12.48 76.7681 12.48C79.5081 12.48 81.5281 13.12 82.8281 14.4C84.1481 15.68 84.8081 17.51 84.8081 19.89C84.8081 22.29 84.1581 24.13 82.8581 25.41C81.5581 26.67 79.5281 27.3 76.7681 27.3ZM76.7681 23.52C77.8881 23.52 78.6881 23.24 79.1681 22.68C79.6481 22.12 79.8881 21.19 79.8881 19.89C79.8881 18.59 79.6481 17.66 79.1681 17.1C78.6881 16.54 77.8881 16.26 76.7681 16.26C75.6681 16.26 74.8781 16.54 74.3981 17.1C73.9181 17.66 73.6781 18.59 73.6781 19.89C73.6781 21.19 73.9181 22.12 74.3981 22.68C74.8781 23.24 75.6681 23.52 76.7681 23.52ZM87.2585 27V6.78H92.0885V13.83C92.6285 13.43 93.2985 13.11 94.0985 12.87C94.8985 12.61 95.7585 12.48 96.6785 12.48C98.5785 12.48 99.9685 12.93 100.849 13.83C101.749 14.73 102.199 16.11 102.199 17.97V27H97.3685V18.3C97.3685 17.48 97.1985 16.9 96.8585 16.56C96.5185 16.22 95.9085 16.05 95.0285 16.05C94.5085 16.05 93.9785 16.17 93.4385 16.41C92.8985 16.65 92.4485 16.95 92.0885 17.31V27H87.2585ZM109.101 27.3C108.201 27.3 107.361 27.14 106.581 26.82C105.821 26.5 105.211 26.01 104.751 25.35C104.291 24.67 104.061 23.83 104.061 22.83C104.061 21.37 104.551 20.23 105.531 19.41C106.531 18.57 108.021 18.15 110.001 18.15H113.961V17.82C113.961 17.1 113.721 16.59 113.241 16.29C112.761 15.97 111.861 15.81 110.541 15.81C108.921 15.81 107.331 16.06 105.771 16.56V13.44C106.471 13.16 107.321 12.93 108.321 12.75C109.341 12.57 110.411 12.48 111.531 12.48C113.731 12.48 115.451 12.93 116.691 13.83C117.951 14.73 118.581 16.16 118.581 18.12V27H114.351L114.111 25.8C113.591 26.28 112.921 26.65 112.101 26.91C111.301 27.17 110.301 27.3 109.101 27.3ZM110.631 24.33C111.391 24.33 112.051 24.2 112.611 23.94C113.171 23.68 113.621 23.35 113.961 22.95V20.94H110.541C109.121 20.94 108.411 21.51 108.411 22.65C108.411 23.17 108.591 23.58 108.951 23.88C109.311 24.18 109.871 24.33 110.631 24.33ZM128.977 27.3C126.437 27.3 124.447 26.68 123.007 25.44C121.587 24.2 120.877 22.35 120.877 19.89C120.877 17.39 121.617 15.53 123.097 14.31C124.597 13.09 126.587 12.48 129.067 12.48C130.107 12.48 131.007 12.56 131.767 12.72C132.547 12.86 133.297 13.1 134.017 13.44V16.86C132.897 16.32 131.587 16.05 130.087 16.05C128.687 16.05 127.617 16.33 126.877 16.89C126.157 17.45 125.797 18.45 125.797 19.89C125.797 21.23 126.137 22.21 126.817 22.83C127.497 23.43 128.577 23.73 130.057 23.73C131.517 23.73 132.847 23.43 134.047 22.83V26.4C133.327 26.72 132.547 26.95 131.707 27.09C130.887 27.23 129.977 27.3 128.977 27.3ZM143.917 27.3C141.177 27.3 139.157 26.67 137.857 25.41C136.557 24.13 135.907 22.29 135.907 19.89C135.907 17.51 136.557 15.68 137.857 14.4C139.177 13.12 141.197 12.48 143.917 12.48C146.657 12.48 148.677 13.12 149.977 14.4C151.297 15.68 151.957 17.51 151.957 19.89C151.957 22.29 151.307 24.13 150.007 25.41C148.707 26.67 146.677 27.3 143.917 27.3ZM143.917 23.52C145.037 23.52 145.837 23.24 146.317 22.68C146.797 22.12 147.037 21.19 147.037 19.89C147.037 18.59 146.797 17.66 146.317 17.1C145.837 16.54 145.037 16.26 143.917 16.26C142.817 16.26 142.027 16.54 141.547 17.1C141.067 17.66 140.827 18.59 140.827 19.89C140.827 21.19 141.067 22.12 141.547 22.68C142.027 23.24 142.817 23.52 143.917 23.52ZM159.297 27.3C157.617 27.3 156.307 26.83 155.367 25.89C154.427 24.93 153.957 23.54 153.957 21.72V12.78H158.787V21.45C158.787 22.25 158.977 22.84 159.357 23.22C159.757 23.58 160.347 23.76 161.127 23.76C161.707 23.76 162.257 23.64 162.777 23.4C163.297 23.16 163.727 22.86 164.067 22.5V12.78H168.897V27H164.397L164.247 25.8C163.667 26.24 162.967 26.6 162.147 26.88C161.327 27.16 160.377 27.3 159.297 27.3ZM177.236 27.3C176.096 27.3 175.016 27.22 173.996 27.06C172.976 26.9 172.166 26.7 171.566 26.46V22.77C172.266 23.07 173.076 23.3 173.996 23.46C174.916 23.62 175.736 23.7 176.456 23.7C177.316 23.7 177.936 23.66 178.316 23.58C178.716 23.5 178.916 23.28 178.916 22.92C178.916 22.52 178.596 22.22 177.956 22.02C177.316 21.82 176.436 21.53 175.316 21.15C174.016 20.69 173.026 20.16 172.346 19.56C171.686 18.94 171.356 18.03 171.356 16.83C171.356 15.43 171.876 14.36 172.916 13.62C173.976 12.86 175.656 12.48 177.956 12.48C178.856 12.48 179.746 12.55 180.626 12.69C181.506 12.83 182.226 12.99 182.786 13.17V16.8C182.226 16.54 181.586 16.35 180.866 16.23C180.146 16.11 179.496 16.05 178.916 16.05C178.176 16.05 177.546 16.1 177.026 16.2C176.526 16.28 176.276 16.49 176.276 16.83C176.276 17.21 176.556 17.48 177.116 17.64C177.676 17.78 178.486 18.02 179.546 18.36C180.666 18.7 181.536 19.07 182.156 19.47C182.776 19.85 183.216 20.31 183.476 20.85C183.736 21.39 183.866 22.07 183.866 22.89C183.866 24.31 183.306 25.4 182.186 26.16C181.066 26.92 179.416 27.3 177.236 27.3Z" fill="white"/>
</svg>
