<svg width="68" height="41" viewBox="0 0 68 41" fill="none" xmlns="http://www.w3.org/2000/svg">
<path d="M68.0002 15.4615C68.0002 29.0642 58.3192 37.1521 52.2906 40.8772C51.5266 41.3458 50.7013 40.3703 51.2821 39.679C53.1617 37.4669 55.3546 34.3101 56.8369 30.3315C55.4998 30.7155 54.0786 30.9229 52.6192 30.9229C44.1226 30.9229 37.2383 24.0025 37.2383 15.4615C37.2383 6.92041 44.1226 0 52.6192 0C61.1157 0 68.0002 6.92041 68.0002 15.4615Z" fill="#FFD659"/>
<path d="M30.7619 15.4615C30.7619 29.0642 21.0809 37.1521 15.0523 40.8772C14.2883 41.3458 13.4631 40.3703 14.0438 39.679C15.9234 37.4669 18.1163 34.3101 19.5986 30.3315C18.2615 30.7155 16.8403 30.9229 15.3809 30.9229C6.88434 30.9229 0 24.0025 0 15.4615C0 6.92041 6.88434 0 15.3809 0C23.8774 0 30.7619 6.92041 30.7619 15.4615Z" fill="#FFD659"/>
</svg>
