<svg width="256" height="256" viewBox="0 0 256 256" fill="none" xmlns="http://www.w3.org/2000/svg">
<mask id="mask0_2001_8" style="mask-type:alpha" maskUnits="userSpaceOnUse" x="0" y="0" width="256" height="256">
<rect width="256" height="256" fill="#D9D9D9"/>
</mask>
<g mask="url(#mask0_2001_8)">
<path d="M20.3681 93.0841C20.3681 107.628 20.1403 121.294 20.4982 134.959C20.6284 139.937 19.0015 141.076 14.3162 141.141C9.66345 141.206 7.84139 140.132 7.939 135.187C8.26437 122.53 7.87394 109.873 8.19931 97.2163C8.362 91.2946 8.36197 85.926 0 84.5595C7.48348 78.9631 14.9344 75.7745 21.9949 72.0002C55.9959 53.8446 90.1271 35.8843 124.128 17.6636C128.195 15.4837 131.449 15.4186 135.483 17.6311C175.081 39.1705 214.776 60.5472 254.406 82.0216C254.894 82.2819 255.284 82.7374 256 83.3881C234.038 96.3378 211.229 107.075 189.137 119.146C170.688 129.233 152.045 138.896 133.564 148.885C131.026 150.251 128.911 151.032 126.178 149.536C105.582 138.278 84.9863 127.118 64.3579 115.892C63.7072 115.535 63.1866 114.981 61.9502 114.038C81.0493 106.782 99.4977 99.8192 117.881 92.6937C120.549 91.6525 122.501 92.4008 124.811 93.3769C130.343 95.7521 136.264 93.6698 138.314 88.8543C140.494 83.7786 138.184 77.3037 133.499 75.1888C127.902 72.6835 121.558 74.9611 119.378 80.9153C118.304 83.8762 116.58 84.8523 113.944 85.8284C94.4871 93.1492 75.03 100.568 55.7031 108.246C52.8399 109.385 51.0829 108.442 48.9354 107.368C39.7275 102.65 30.91 97.1512 20.3681 93.0841Z" fill="#FFD659"/>
<path d="M213.641 115.046C213.641 135.089 213.576 153.83 213.674 172.572C213.706 176.899 211.136 175.174 209.216 174.752C192.785 171.107 176.744 172.116 161.354 179.046C150.227 184.057 140.824 191.541 133.112 201.009C130.607 204.067 129.175 205.271 125.922 201.399C105.391 176.931 79.3616 168.212 48.1913 175.272C44.5471 176.086 44.1567 174.784 44.1892 171.726C44.3519 154.383 44.482 137.041 44.2868 119.732C44.2218 115.079 45.6534 115.046 49.0372 116.901C68.722 127.573 88.4719 138.213 108.189 148.852C110.532 150.121 113.232 150.935 115.185 152.594C125.239 161.314 134.381 158.418 144.826 152.366C167.016 139.482 189.889 127.833 213.641 115.046Z" fill="#FFD659"/>
<path d="M130.311 226.941C142.903 211.16 159.399 200.423 180.613 197.723C192.749 196.193 204.56 197.267 216.241 201.074C222.65 203.156 224.342 208.297 226.034 214.739C202.705 206.54 180.092 204.36 158.358 217.668C172.153 215.553 185.949 215.943 199.712 217.993C209.831 219.522 219.624 222.158 229.223 225.672C233.648 227.299 235.177 230.129 234.136 234.75C215.622 229.869 197.076 226.42 177.88 227.624C162.099 228.6 147.49 233.285 133.63 240.606C131.157 241.908 129.139 242.981 126.309 241.322C97.0581 224.175 65.9854 225.216 34.3271 232.147C31.1385 232.83 27.9824 233.546 24.7938 234.229C24.6311 234.262 24.4359 234.164 23.7851 234.001C23.4923 229.771 25.1191 227.136 29.4465 225.607C51.7343 217.7 74.445 214.154 98.0017 217.928C98.7826 218.058 99.596 217.928 100.409 217.44C78.5772 204.295 55.834 207.126 32.6026 214.349C34.0017 206.442 38.4267 202.115 45.7801 200.163C74.0871 192.614 99.0104 198.601 120.647 218.318C123.803 221.149 127.025 223.98 130.311 226.941Z" fill="#FFD659"/>
<path d="M4.81524 169.155C4.81524 166.097 4.78271 163.039 4.81524 159.98C4.84778 153.831 8.0364 150.447 14.0557 150.186C20.5306 149.894 24.5326 153.082 24.7278 159.167C24.9555 165.902 24.9555 172.637 24.7603 179.339C24.5651 185.619 20.1401 190.077 14.4787 190.044C8.8498 190.012 5.10808 185.684 4.9454 178.917C4.88032 175.663 4.9454 172.377 4.9454 169.123C4.91286 169.155 4.84778 169.155 4.81524 169.155Z" fill="#FFD659"/>
</g>
</svg>
