<svg width="40" height="40" viewBox="0 0 40 40" fill="none" xmlns="http://www.w3.org/2000/svg">
<path d="M37.2018 9.98555L29.7741 5.6832L27.4274 7.0425V4.30234L19.9998 0L12.5722 4.30227V7.01445L10.2255 5.65516L2.79785 9.95742V14.1446H3.96895V11.0416L9.63988 14.3264V21.238L3.96895 17.9531V15.3156H2.79785V18.628L5.14207 19.9859L2.79793 21.3438V30.0145L10.2256 34.3168L12.5723 32.9575V35.6977L19.9998 40L27.4274 35.6977V32.9855L29.7741 34.3448L37.2018 30.0425V27.0266H36.0307V29.3674L30.3597 32.6522V25.7406L36.0307 22.4559V25.8555H37.2018V21.3719L34.8575 20.0141L37.2018 18.6563V9.98555ZM35.2154 10.1884L29.7741 13.3402L24.3329 10.1884L29.7741 7.03656L35.2154 10.1884ZM19.9998 30.3818L14.5585 27.2299L16.0847 26.3459L19.9998 28.6136L23.9149 26.3459L25.4411 27.2299L19.9998 30.3818ZM16.482 11.0416V13.376L12.5722 15.6406V20.2177L10.8111 21.2379V14.3263L16.482 11.0416ZM19.9998 12.6917L25.4411 15.8436L19.9998 18.9954L14.5584 15.8435L19.9998 12.6917ZM13.7433 16.7248L19.4142 20.0096V26.9212L13.7433 23.6363V16.7248ZM20.5854 26.9211V20.0095L26.2562 16.7248V23.6363L20.5854 26.9211ZM23.5176 13.376V11.0696L29.1885 14.3544V21.2659L27.4273 20.2457V15.6406L23.5176 13.376ZM22.3465 9.98547V12.6977L20.5854 11.6775V8.67109L26.2562 5.38641V7.72078L22.3465 9.98547ZM25.4411 4.50516L19.9998 7.65695L14.5585 4.50516L19.9998 1.35336L25.4411 4.50516ZM13.7433 5.38641L19.4142 8.67117V11.6776L17.653 12.6977V9.95742L13.7433 7.69281V5.38641ZM15.6668 10.1603L10.2256 13.3122L4.78418 10.1603L10.2256 7.00852L15.6668 10.1603ZM10.2255 22.9304L12.5722 21.5711V23.3392L10.2255 24.6986L4.78418 21.5466L6.31043 20.6627L10.2255 22.9304ZM3.96902 22.4278L9.63996 25.7127V32.6242L3.96902 29.3394V22.4278ZM10.8111 32.6242V25.7127L12.9014 24.5019L14.9164 25.6691L12.5722 27.0269V31.604L10.8111 32.6242ZM13.7433 28.1111L19.4142 31.3959V38.3075L13.7433 35.0227V28.1111ZM20.5854 38.3075V31.3959L26.2562 28.1112V35.0226L20.5854 38.3075ZM25.0832 25.6691L27.0741 24.516L29.1886 25.7408V32.6523L27.4274 31.6322V27.0271L25.0832 25.6691ZM35.2155 21.5748L29.7741 24.7266L27.4274 23.3672V21.5992L29.7741 22.9585L33.6893 20.6908L35.2155 21.5748ZM30.3596 21.266V14.3544L36.0306 11.0697V17.9812L30.3596 21.266Z" fill="white"/>
</svg>
