<svg width="40" height="40" viewBox="0 0 40 40" fill="none" xmlns="http://www.w3.org/2000/svg">
<path d="M37.3047 21.1346V10.0041L31.942 6.90383L25.3627 10.7074V3.10023L20 0L2.69531 10.0041V29.9962L19.9995 40L25.3783 36.9005V29.3264L31.9429 33.096L37.3046 29.9962V22.308H36.1327V29.3187L32.5434 31.3938V17.5842L24.2063 22.404V36.222L20.6014 38.2993V20.3202L36.1328 11.358V21.1346H37.3047ZM26.5948 22.3782V23.5475L25.5596 22.9767L26.5948 22.3782ZM25.3783 24.2163L27.7666 25.5333V21.7007L31.3716 19.6166V31.4152L25.3783 27.9737V24.2163ZM31.942 8.25875L35.5461 10.3423L20.0139 19.3049L16.4009 17.2433L31.942 8.25875ZM19.3845 14.1635L14.6373 16.9079V24.4248L13.4361 23.7345L13.4362 16.1777L19.3844 12.739V14.1635H19.3845ZM12.8511 24.7512L14.6373 25.7776V30.0489L9.23 26.9228L12.8511 24.7512ZM23.6049 3.43898L13.8811 9.06039L14.467 10.0766L24.1909 4.45516V11.3848L20.5563 13.4859V10.7065L12.2645 15.5001L12.2643 23.7355L8.64406 25.8284V13.443L13.2618 10.7735L12.6759 9.75734L8.05812 12.4269L4.45312 10.3427L20 1.35492L23.6049 3.43898ZM3.86719 11.359L7.47211 13.443V27.2616L15.8091 32.0814V18.2564L19.4296 20.3223V38.3157L3.86719 29.3187V11.359Z" fill="white"/>
</svg>
