<svg width="40" height="40" viewBox="0 0 40 40" fill="none" xmlns="http://www.w3.org/2000/svg">
<g clip-path="url(#clip0_642_579)">
<path d="M39.2019 13.1045L23.8006 4.2125L23.2138 5.22891L37.4443 13.4449L33.1228 15.9563L12.1847 3.86773L16.5063 1.35633L22.0539 4.55914L22.6407 3.54273L16.5043 0L10.4271 3.53172V7.68828L6.87504 5.6375L0.797852 9.16922V16.1947L3.97051 18.0264L0.797852 19.8702V26.8955L13.8382 34.4245L14.425 33.408L1.97152 26.2179V21.2241L22.9077 33.3117V38.3055L15.5987 34.0856L15.0119 35.102L23.4955 40L29.5726 36.4683V32.3117L33.1247 34.3625L39.2018 30.8308V23.8053L36.0292 21.9736L39.2018 20.1298V13.1045H39.2019ZM11.6007 4.88578L32.5368 16.9733V21.967L29.5726 20.2556V18.742L11.6007 8.36594V4.88578ZM24.0814 27.6012V22.6098L28.399 20.1005V25.092L24.0814 27.6012ZM6.87707 6.99383L27.8151 19.0824L23.4936 21.5938L2.55543 9.50523L6.87707 6.99383ZM1.97152 10.5233L22.9077 22.6108V27.6045L1.97152 15.517V10.5233ZM23.4955 29.2991L25.2302 28.291L27.815 29.7834L23.4935 32.2948L2.55543 20.2061L5.14223 18.7028L23.4955 29.2991ZM24.0814 38.302V33.3106L28.399 30.8014V35.7929L24.0814 38.302ZM26.4 27.6112L29.404 25.8655L32.5369 27.6742V32.668L29.5727 30.9566V29.443L26.4 27.6112ZM33.7105 32.6645V27.673L38.0282 25.1638V30.1554L33.7105 32.6645ZM37.4443 24.1458L33.1228 26.6572L29.5727 24.6076V21.6108L33.1247 23.6616L34.8595 22.6534L37.4443 24.1458ZM33.7105 21.9637V16.9722L38.0282 14.463V19.4545L33.7105 21.9637Z" fill="white"/>
<path d="M6.28906 8.83984H7.46273V10.0135H6.28906V8.83984Z" fill="white"/>
</g>
<defs>
<clipPath id="clip0_642_579">
<rect width="40" height="40" fill="white"/>
</clipPath>
</defs>
</svg>
